<svg xmlns="http://www.w3.org/2000/svg" width="460" height="460" viewBox="0 0 460 460">
  <path d="M416.417 394.492c0 8.25-6.75 15-15 15h-342c-8.25 0-15-6.75-15-15v-332c0-8.25 6.75-15 15-15h342c8.25 0 15 6.75 15 15v332z"/>
  <path d="M401.417 338.503v-271c0-2.75-2.25-5-5-5h-332c-2.75 0-5 2.25-5 5v271h342z" fill="#FFDD30"/>
  <path d="M345.316 182.28l-17.797-45.085c-.61-1.535-2.46-2.79-4.11-2.79h-70c-1.65 0-3 1.35-3 3V210.4h-6.96l-.02-24.885c-.01-2.75-1.89-6.23-4.19-7.733l-89.1-58.158c-2.31-1.503-5.58-.962-7.27 1.204l-4.93 6.3c-1.7 2.164-1.44 5.47.57 7.345l6.89 6.423v44.213c0 4.41-3.59 8-8 8s-8-3.59-8-8c0-2.77-2.24-5-5-5s-5 2.23-5 5c0 9.92 8.07 18 18 18s18-8.08 18-18v-34.9l39.43 36.76c2.01 1.87 3.65 5.66 3.65 8.41v15.02H119.4c-2.75 0-5 2.25-5 5v32c0 2.75 2.25 5 5 5h25.005c.09 16.49 13.48 29.83 29.994 29.83s29.91-13.35 30-29.84h67.01c.09 16.49 13.48 29.83 29.99 29.83s29.9-13.34 29.99-29.83h10.01c2.75 0 5-2.25 5-5v-59.33c0-1.65-.5-4.26-1.1-5.79zm-170.9 84.953c-8.283 0-15-6.716-15-15 0-8.284 6.717-15 15-15s15 6.716 15 15c0 8.284-6.714 15-15 15zm127 0c-8.283 0-15-6.716-15-15 0-8.284 6.717-15 15-15s15 6.716 15 15c0 8.284-6.714 15-15 15zm33.5-74.245c0 1.1-.9 2-2 2h-55.5c-1.1 0-2-.9-2-2V146.82c0-1.1.9-2 2-2h42.064c1.1 0 2.296.85 2.658 1.89l12.12 34.778c.363 1.04.66 2.79.66 3.89v7.61z"/>
  <path d="M60.332 394.887V349.81h4.965v19.466h25.975V349.81h4.965v45.077h-4.965v-20.89H65.297v20.89h-4.965zm48.352 0V349.81h31.605v4.783h-26.65v14.743h25.88v4.602h-25.88v16.227h26.64v4.723h-31.6zm41.178 0V349.81h4.904v40.354h25.55v4.723h-30.454zm38.574 0V349.81h18.982c5.064 0 8.552.752 10.46 2.255 1.906 1.504 2.86 4.183 2.86 8.038v6.812c0 3.956-.944 6.69-2.83 8.204-1.89 1.51-5.385 2.27-10.49 2.27H193.4v17.49h-4.964zm27.096-27.973v-6.63c0-2.18-.51-3.673-1.53-4.48-1.02-.807-3.233-1.21-6.644-1.21H193.4v18.042h13.958c3.35 0 5.55-.414 6.6-1.24 1.05-.83 1.574-2.322 1.574-4.482zm16.536-2.21c0-5.772 1.104-9.788 3.315-12.05 2.21-2.26 6.11-3.39 11.7-3.39h5.268c5.55 0 9.45.974 11.69 2.92 2.24 1.95 3.36 5.253 3.36 9.916v1.968h-5.14v-1.24c0-3.412-.69-5.743-2.09-6.994-1.39-1.25-4.11-1.877-8.17-1.877h-3.48c-2.72 0-4.7.167-5.95.5-1.24.333-2.27.893-3.1 1.68-.82.767-1.4 1.77-1.74 3.012-.33 1.24-.5 3.5-.5 6.79v12.83c0 3.27.17 5.52.5 6.76.34 1.24.92 2.24 1.74 3.01.83.78 1.83 1.34 3.02 1.68 1.18.33 3.2.5 6.04.5H252c4.157 0 6.923-.66 8.295-1.97 1.37-1.31 2.06-3.83 2.06-7.54 0-.57-.007-1-.017-1.3-.01-.31-.026-.59-.047-.85h5.12v2.96c0 5-1.08 8.48-3.25 10.44-2.17 1.96-6.1 2.93-11.79 2.93h-5.27c-5.59 0-9.49-1.13-11.7-3.39-2.21-2.26-3.31-6.275-3.31-12.05V364.7zm39.482 30.183l16.65-45.077h8.205l16.74 45.077H308l-4.3-11.534h-22.795l-4.208 11.534h-5.146zm11.02-15.985h19.526l-8.99-24.31H291.5l-8.93 24.31zm38.18 15.985V349.81h20.345c5.065 0 8.553.752 10.46 2.255 1.907 1.504 2.86 4.183 2.86 8.038v6.812c0 2.36-.48 4.213-1.438 5.555-.96 1.342-2.418 2.185-4.375 2.528 2.14.505 3.643 1.423 4.51 2.755s1.303 3.43 1.303 6.297v10.838h-5.207v-9.294c0-3.23-.51-5.414-1.53-6.554-1.02-1.14-3.01-1.71-5.978-1.71h-15.984v17.56h-4.965zm19.345-40.294h-14.38v18.043h14.38c3.754 0 6.21-.464 7.372-1.393 1.16-.928 1.74-2.593 1.74-4.995v-5.268c0-2.442-.56-4.117-1.68-5.025-1.12-.908-3.597-1.362-7.432-1.362zm24.315 25.61h5.026v.85c0 2.684.202 4.66.605 5.933.41 1.27 1.07 2.17 2 2.694.73.404 1.85.69 3.36.863 1.52.172 4.63.257 9.36.257 2.57 0 4.55-.167 5.97-.5 1.41-.333 2.46-.873 3.15-1.62.39-.403.67-1.09.85-2.06s.27-2.28.27-3.935c0-3.35-.34-5.454-1.01-6.312-.67-.857-2.01-1.367-4.01-1.53l-13.89-1.09c-4.16-.322-7.03-1.36-8.63-3.117-1.59-1.756-2.39-4.712-2.39-8.87 0-2.624.26-4.732.79-6.327.52-1.6 1.37-2.92 2.54-3.97.91-.81 2.18-1.38 3.82-1.71s4.52-.5 8.658-.5h1.604c4.625 0 7.88.22 9.767.66 1.883.44 3.463 1.21 4.734 2.3.87.72 1.51 1.76 1.92 3.1.417 1.34.62 3.01.62 5.01 0 .58-.002 1.03-.012 1.34-.01.31-.022.59-.042.83h-5.023v-1.12c0-1.66-.094-2.92-.285-3.8-.19-.88-.5-1.53-.922-1.95-.63-.63-1.74-1.07-3.35-1.32-1.6-.25-4.64-.38-9.12-.38-4.64 0-7.56.52-8.75 1.57-1.19 1.05-1.784 3.14-1.784 6.29 0 2.582.39 4.364 1.163 5.342.776.98 2.275 1.56 4.495 1.74l14.17 1.18c3.714.322 6.32 1.346 7.81 3.072 1.495 1.723 2.24 4.604 2.24 8.64 0 2.946-.19 5.16-.57 6.644-.386 1.49-1.02 2.72-1.91 3.71-1.09 1.23-2.56 2.1-4.407 2.59s-5.214.74-10.097.74h-2.24c-4.16 0-7.1-.21-8.824-.63s-3.162-1.16-4.312-2.21c-1.13-.97-1.964-2.28-2.5-3.938-.534-1.658-.802-3.757-.802-6.3v-2.2z" fill="#FFF"/>
</svg>
