<svg xmlns="http://www.w3.org/2000/svg" width="1986" height="460" viewBox="0 0 1986 460">
  <path d="M457.592 325.554V127.797h21.78v85.398h113.954v-85.398h21.78v197.757h-21.78v-91.64H479.373v91.64h-21.78zm212.128 0V127.797h138.656v20.984H691.5v64.68h113.56v20.19H691.5v71.19h116.876v20.72H669.72zm180.652 0V127.797h21.516v177.04h112.094v20.718h-133.61zm169.23 0V127.797h83.273c22.224 0 37.52 3.3 45.887 9.895 8.367 6.597 12.55 18.35 12.55 35.262v29.883c0 17.355-4.14 29.352-12.417 35.992-8.28 6.64-23.62 9.96-46.02 9.96h-61.492v76.76h-21.78zm118.867-122.718V173.75c0-9.563-2.24-16.114-6.71-19.656-4.47-3.54-14.19-5.313-29.15-5.313h-61.23v79.16h61.22c14.69 0 24.35-1.81 28.95-5.44 4.6-3.63 6.9-10.18 6.9-19.65zm72.54-9.696c0-25.32 4.85-42.942 14.54-52.86 9.69-9.914 26.8-14.874 51.33-14.874H1300c24.35 0 41.438 4.273 51.266 12.816 9.828 8.546 14.742 23.043 14.742 43.496v8.633h-22.578v-5.44c0-14.96-3.055-25.19-9.164-30.68-6.11-5.49-18.063-8.23-35.86-8.23h-15.272c-11.953 0-20.652.73-26.098 2.19s-9.983 3.92-13.613 7.37c-3.632 3.37-6.176 7.77-7.637 13.22s-2.19 15.39-2.19 29.82v56.31c0 14.35.73 24.24 2.19 29.69s4.005 9.86 7.637 13.22c3.63 3.46 8.035 5.91 13.215 7.37s14.012 2.19 26.496 2.19h15.273c18.24 0 30.368-2.87 36.39-8.63 6.022-5.75 9.032-16.77 9.032-33.07 0-2.48-.03-4.38-.07-5.71-.05-1.33-.11-2.56-.2-3.72H1366v13.02c0 21.96-4.762 37.24-14.278 45.82-9.52 8.59-26.763 12.89-51.73 12.89h-23.11c-24.526 0-41.637-4.95-51.33-14.87-9.697-9.91-14.545-27.53-14.545-52.86v-67.07zm173.21 132.414l73.04-197.757h35.99l73.44 197.757h-22.58l-18.86-50.602h-100l-18.46 50.602h-22.58zm48.34-70.125h85.66l-39.45-106.65h-7.04l-39.18 106.65zm167.5 70.12V127.79h89.25c22.22 0 37.52 3.3 45.88 9.895 8.36 6.597 12.55 18.35 12.55 35.262v29.882c0 10.36-2.11 18.48-6.31 24.37-4.21 5.89-10.61 9.58-19.19 11.09 9.38 2.21 15.98 6.24 19.79 12.08 3.8 5.84 5.71 15.05 5.71 27.62v47.54h-22.84v-40.77c0-14.17-2.24-23.75-6.71-28.76-4.47-5-13.22-7.51-26.23-7.51h-70.13v77.03h-21.79zm84.86-176.78h-63.09v79.15h63.08c16.47 0 27.24-2.04 32.34-6.11 5.09-4.07 7.63-11.38 7.63-21.92v-23.1c0-10.71-2.46-18.06-7.37-22.05s-15.79-5.98-32.61-5.98zm106.68 112.36h22.05v3.72c0 11.77.88 20.45 2.65 26.03 1.77 5.57 4.69 9.52 8.77 11.82 3.19 1.77 8.1 3.03 14.74 3.78 6.64.75 20.32 1.13 41.04 1.13 11.24 0 19.96-.73 26.16-2.19s10.8-3.83 13.82-7.11c1.68-1.77 2.92-4.78 3.72-9.03s1.19-10.01 1.19-17.27c0-14.7-1.49-23.93-4.45-27.69-2.97-3.76-8.84-6-17.6-6.71l-60.96-4.78c-18.24-1.42-30.86-5.98-37.86-13.68-7-7.71-10.49-20.68-10.49-38.92 0-11.51 1.15-20.77 3.45-27.76 2.3-7 6.02-12.8 11.15-17.4 3.98-3.54 9.56-6.05 16.73-7.51s19.833-2.19 37.984-2.19h7.04c20.27 0 34.55.97 42.83 2.92 8.28 1.95 15.21 5.31 20.784 10.09 3.806 3.18 6.62 7.72 8.434 13.61 1.81 5.89 2.72 13.21 2.72 21.98 0 2.57-.025 4.54-.07 5.91-.05 1.37-.11 2.59-.2 3.65h-22.05v-4.92c0-7.26-.42-12.82-1.26-16.67-.843-3.85-2.19-6.71-4.05-8.57-2.746-2.745-7.64-4.67-14.68-5.78-7.04-1.104-20.385-1.66-40.04-1.66-20.37 0-33.16 2.306-38.385 6.91-5.227 4.6-7.837 13.81-7.837 27.62 0 11.337 1.7 19.15 5.11 23.44 3.405 4.3 9.98 6.84 19.72 7.64l62.155 5.18c16.29 1.42 27.71 5.91 34.264 13.48s9.83 20.21 9.83 37.92c0 12.927-.84 22.64-2.52 29.15-1.68 6.51-4.47 11.93-8.367 16.27-4.78 5.4-11.22 9.19-19.32 11.355-8.1 2.17-22.865 3.253-44.29 3.253h-9.83c-18.24 0-31.145-.93-38.715-2.79s-13.88-5.09-18.927-9.694c-4.96-4.25-8.613-10-10.96-17.264-2.345-7.26-3.52-16.47-3.52-27.63v-9.69zM407.34 396c0 8.25-6.75 15-15 15h-342c-8.25 0-15-6.75-15-15V64c0-8.25 6.75-15 15-15h342c8.25 0 15 6.75 15 15v332z"/>
  <path d="M387.347 64h-332c-2.75 0-5 2.25-5 5v322c0 2.75 2.25 5 5 5h332c2.75 0 5-2.25 5-5V69c0-2.75-2.25-5-5-5z" fill="#FFDD30"/>
  <path d="M336.246 211.78l-17.797-45.087c-.61-1.535-2.46-2.79-4.11-2.79h-70c-1.65 0-3 1.35-3 3v72.995h-6.96l-.02-24.885c-.01-2.75-1.89-6.23-4.19-7.733l-89.1-58.158c-2.31-1.503-5.58-.962-7.27 1.204l-4.93 6.3c-1.7 2.164-1.44 5.47.57 7.345l6.89 6.43v44.22c0 4.41-3.59 8-8 8s-8-3.59-8-8c0-2.76-2.24-5-5-5s-5 2.24-5 5c0 9.93 8.07 18 18 18s18-8.07 18-18v-34.9l39.43 36.76c2.01 1.88 3.65 5.66 3.65 8.41v15.01h-79.09c-2.75 0-5 2.25-5 5v32c0 2.75 2.25 5 5 5h25c.09 16.49 13.48 29.84 29.99 29.84s29.9-13.34 29.99-29.83h67.01c.09 16.49 13.48 29.84 29.99 29.84s29.91-13.34 30-29.83h10c2.75 0 5-2.25 5-5v-59.33c0-1.65-.49-4.25-1.1-5.79zm-170.9 84.95c-8.283 0-15-6.716-15-15s6.717-15 15-15 15 6.716 15 15c0 8.285-6.714 15-15 15zm127 0c-8.283 0-15-6.716-15-15s6.717-15 15-15 15 6.716 15 15c0 8.285-6.714 15-15 15zm28.5-74.244c0 1.1-.9 2-2 2h-55.5c-1.1 0-2-.9-2-2V176.32c0-1.1.9-2 2-2h42.064c1.1 0 2.296.85 2.658 1.888l12.12 34.778c.363 1.04.66 2.79.66 3.89v7.61z" fill="#010002"/>
</svg>
