<svg xmlns="http://www.w3.org/2000/svg" width="1986" height="460" viewBox="0 0 1986 460">
  <path d="M386 376c0 11.046-8.954 20-20 20H64c-11.046 0-20-8.954-20-20V84c0-11.046 8.954-20 20-20h302c11.046 0 20 8.954 20 20v292z" fill="#FFDD30"/>
  <path d="M451.383 325.554V127.797h21.78v85.398h113.954v-85.398h21.78v197.757h-21.78v-91.64H473.164v91.64h-21.78zm212.127 0V127.797h138.657v20.984H685.292v64.68h113.56v20.19H685.29v71.19h116.875v20.72H663.51zm180.653 0V127.797h21.516v177.04h112.09v20.718H844.16zm169.23 0V127.797h83.273c22.224 0 37.52 3.3 45.887 9.895 8.367 6.597 12.55 18.35 12.55 35.262v29.883c0 17.355-4.14 29.352-12.417 35.992-8.28 6.64-23.62 9.96-46.02 9.96h-61.492v76.76h-21.78zm118.867-122.718V173.75c0-9.563-2.237-16.114-6.707-19.656-4.472-3.54-14.19-5.313-29.152-5.313h-61.22v79.16h61.23c14.7 0 24.35-1.81 28.96-5.44 4.6-3.63 6.91-10.18 6.91-19.65zm72.547-9.696c0-25.32 4.848-42.942 14.543-52.86 9.695-9.914 26.806-14.874 51.332-14.874h23.11c24.348 0 41.437 4.273 51.265 12.816 9.828 8.546 14.742 23.043 14.742 43.496v8.633h-22.58v-5.44c0-14.96-3.06-25.19-9.17-30.68-6.11-5.49-18.07-8.23-35.86-8.23h-15.27c-11.96 0-20.65.73-26.1 2.19s-9.99 3.92-13.62 7.37c-3.63 3.37-6.18 7.77-7.64 13.22s-2.19 15.39-2.19 29.82v56.31c0 14.35.73 24.24 2.19 29.69s4 9.86 7.63 13.22c3.63 3.46 8.04 5.91 13.22 7.37s14.01 2.19 26.49 2.19h15.27c18.24 0 30.37-2.87 36.39-8.63 6.024-5.75 9.034-16.77 9.034-33.07 0-2.48-.02-4.38-.066-5.71s-.11-2.56-.2-3.72h22.445v13.02c0 21.96-4.76 37.24-14.28 45.82-9.52 8.59-26.76 12.89-51.73 12.89h-23.11c-24.523 0-41.634-4.954-51.33-14.872-9.694-9.917-14.54-27.537-14.54-52.86v-67.07zm173.213 132.414l73.048-197.757h35.992l73.445 197.757h-22.578l-18.86-50.602H1419.06l-18.46 50.602h-22.58zm48.344-70.125h85.664l-39.445-106.65h-7.04l-39.18 106.65zm167.503 70.12V127.79h89.25c22.224 0 37.52 3.3 45.887 9.895 8.367 6.597 12.55 18.35 12.55 35.262v29.882c0 10.36-2.103 18.48-6.308 24.37-4.206 5.89-10.604 9.58-19.19 11.09 9.383 2.21 15.98 6.24 19.788 12.08 3.806 5.84 5.71 15.05 5.71 27.62v47.54h-22.843v-40.77c0-14.17-2.23-23.75-6.7-28.76-4.47-5-13.21-7.507-26.23-7.507h-70.12v77.03h-21.78zm84.867-176.78h-63.086v79.15h63.086c16.47 0 27.247-2.04 32.34-6.11 5.09-4.07 7.637-11.38 7.637-21.92v-23.1c0-10.71-2.45-18.06-7.37-22.05s-15.78-5.98-32.6-5.98zm106.676 112.36h22.046v3.72c0 11.77.884 20.45 2.656 26.03 1.77 5.57 4.692 9.52 8.766 11.82 3.188 1.77 8.102 3.03 14.742 3.78 6.64.75 20.32 1.13 41.04 1.13 11.242 0 19.965-.73 26.163-2.19 6.196-1.46 10.802-3.83 13.813-7.11 1.68-1.77 2.922-4.78 3.72-9.03s1.194-10.01 1.194-17.27c0-14.7-1.483-23.93-4.45-27.69-2.967-3.76-8.83-6-17.597-6.71l-60.96-4.78c-18.242-1.42-30.86-5.98-37.853-13.68-6.995-7.71-10.492-20.68-10.492-38.92 0-11.51 1.15-20.768 3.453-27.76 2.31-6.997 6.03-12.797 11.16-17.4 3.99-3.54 9.57-6.047 16.74-7.508s19.84-2.19 37.99-2.19h7.04c20.28 0 34.55.97 42.83 2.92 8.28 1.95 15.21 5.31 20.79 10.09 3.81 3.186 6.62 7.724 8.44 13.61 1.82 5.89 2.73 13.216 2.73 21.98 0 2.57-.02 4.54-.06 5.91-.044 1.375-.11 2.59-.2 3.653h-22.044v-4.91c0-7.26-.42-12.818-1.26-16.67-.842-3.85-2.19-6.707-4.05-8.566-2.745-2.74-7.64-4.67-14.676-5.776-7.04-1.106-20.386-1.66-40.04-1.66-20.367 0-33.16 2.304-38.384 6.91-5.223 4.6-7.833 13.81-7.833 27.62 0 11.336 1.707 19.15 5.116 23.44 3.41 4.3 9.98 6.84 19.723 7.64l62.16 5.18c16.29 1.42 27.71 5.91 34.266 13.48s9.83 20.21 9.83 37.92c0 12.926-.84 22.642-2.52 29.15-1.686 6.51-4.47 11.932-8.37 16.27-4.78 5.4-11.226 9.19-19.327 11.354-8.104 2.17-22.87 3.25-44.295 3.25h-9.83c-18.24 0-31.14-.93-38.71-2.79s-13.88-5.09-18.924-9.696c-4.96-4.25-8.61-10.004-10.956-17.266-2.35-7.26-3.52-16.47-3.52-27.63v-9.69z"/>
  <path d="M330.037 211.78l-17.797-45.087c-.606-1.535-2.45-2.79-4.102-2.79h-70c-1.65 0-3 1.35-3 3v72.995h-6.96l-.018-24.885c-.002-2.75-1.888-6.23-4.19-7.733l-89.095-58.158c-2.303-1.503-5.574-.962-7.27 1.204l-4.932 6.3c-1.695 2.164-1.437 5.47.575 7.345l6.89 6.43v44.22c0 4.41-3.59 8-8 8s-8-3.59-8-8c0-2.76-2.24-5-5-5s-5 2.24-5 5c0 9.93 8.075 18 18 18s18-8.07 18-18v-34.9l39.436 36.76c2.012 1.88 3.657 5.66 3.657 8.41v15.01h-79.09c-2.75 0-5 2.25-5 5v32c0 2.75 2.25 5 5 5h25.01c.09 16.49 13.49 29.84 30 29.84s29.91-13.34 30-29.83h67.01c.09 16.49 13.49 29.84 30 29.84s29.91-13.34 30-29.83h10.01c2.75 0 5-2.25 5-5v-59.33c0-1.65-.49-4.25-1.1-5.79zm-170.9 84.95c-8.283 0-15-6.716-15-15s6.717-15 15-15 15 6.716 15 15c0 8.285-6.714 15-15 15zm127 0c-8.283 0-15-6.716-15-15s6.717-15 15-15 15 6.716 15 15c0 8.285-6.714 15-15 15zm28.5-74.244c0 1.1-.9 2-2 2h-55.5c-1.1 0-2-.9-2-2V176.32c0-1.1.9-2 2-2H299.2c1.1 0 2.298.85 2.66 1.888l12.12 34.778c.363 1.04.66 2.79.66 3.89v7.61z" fill="#010002"/>
</svg>
