<svg xmlns="http://www.w3.org/2000/svg" width="460" height="460" viewBox="0 0 460 460">
  <path d="M60.115 394.887V349.81h4.965v19.466h25.975V349.81h4.965v45.077h-4.965v-20.89H65.08v20.89h-4.965zm48.353 0V349.81h31.605v4.783h-26.64v14.743h25.884v4.602h-25.885v16.227h26.64v4.723H108.47zm41.177 0V349.81h4.904v40.354h25.55v4.723h-30.46zm38.575 0V349.81h18.98c5.065 0 8.553.752 10.46 2.255 1.907 1.504 2.86 4.183 2.86 8.038v6.812c0 3.956-.943 6.69-2.83 8.204-1.888 1.51-5.384 2.27-10.49 2.27h-14.017v17.49h-4.964zm27.095-27.973v-6.63c0-2.18-.51-3.673-1.53-4.48-1.02-.807-3.233-1.21-6.644-1.21h-13.95v18.042h13.96c3.35 0 5.55-.414 6.6-1.24 1.05-.83 1.58-2.322 1.58-4.482zm16.535-2.21c0-5.772 1.105-9.788 3.316-12.05 2.21-2.26 6.11-3.39 11.7-3.39h5.268c5.55 0 9.445.974 11.686 2.92 2.24 1.95 3.36 5.253 3.36 9.916v1.968h-5.146v-1.24c0-3.412-.696-5.743-2.09-6.994-1.392-1.25-4.116-1.877-8.173-1.877h-3.48c-2.72 0-4.7.167-5.95.5-1.24.333-2.27.893-3.1 1.68-.82.767-1.4 1.77-1.74 3.012-.33 1.24-.5 3.5-.5 6.79v12.83c0 3.27.17 5.52.5 6.76.34 1.24.92 2.24 1.74 3.01.83.78 1.83 1.34 3.02 1.68 1.18.33 3.2.5 6.04.5h3.48c4.16 0 6.93-.66 8.3-1.97 1.37-1.31 2.06-3.83 2.06-7.54 0-.57 0-1-.01-1.3-.01-.31-.02-.59-.04-.85h5.12v2.96c0 5-1.08 8.48-3.25 10.44-2.17 1.96-6.1 2.93-11.79 2.93h-5.27c-5.59 0-9.49-1.13-11.7-3.39-2.21-2.26-3.31-6.28-3.31-12.05V364.7zm39.484 30.183l16.65-45.077h8.204l16.74 45.077h-5.145l-4.3-11.534H280.69l-4.208 11.534h-5.146zm11.02-15.985h19.525l-9-24.31h-1.61l-8.93 24.31zm38.18 15.985V349.81h20.344c5.065 0 8.553.752 10.46 2.255 1.907 1.504 2.86 4.183 2.86 8.038v6.812c0 2.36-.48 4.213-1.438 5.555-.96 1.342-2.418 2.185-4.375 2.528 2.14.505 3.643 1.423 4.51 2.755s1.303 3.43 1.303 6.297v10.838h-5.207v-9.294c0-3.23-.51-5.414-1.52-6.554-1.02-1.14-3.01-1.71-5.98-1.71H325.5v17.56h-4.966zm19.345-40.294H325.5v18.043h14.38c3.753 0 6.21-.464 7.37-1.393 1.16-.928 1.74-2.593 1.74-4.995v-5.268c0-2.442-.56-4.117-1.68-5.025-1.12-.908-3.596-1.362-7.43-1.362zm24.31 25.61h5.02v.85c0 2.684.2 4.66.6 5.933.4 1.27 1.07 2.17 2 2.694.72.404 1.85.69 3.36.863 1.51.172 4.63.257 9.35.257 2.56 0 4.55-.167 5.96-.5 1.41-.333 2.46-.873 3.15-1.62.38-.403.66-1.09.84-2.06s.27-2.28.27-3.935c0-3.35-.34-5.454-1.02-6.312-.68-.857-2.02-1.367-4.02-1.53l-13.897-1.09c-4.16-.322-7.037-1.36-8.63-3.117-1.596-1.756-2.39-4.712-2.39-8.87 0-2.624.26-4.732.784-6.327.52-1.6 1.37-2.92 2.54-3.97.91-.81 2.18-1.38 3.816-1.71s4.52-.5 8.66-.5h1.6c4.62 0 7.88.22 9.766.66 1.882.44 3.462 1.21 4.733 2.3.87.72 1.51 1.76 1.92 3.1.417 1.34.62 3.01.62 5.01 0 .58 0 1.03-.01 1.34-.01.31-.03.59-.05.83h-5.024v-1.12c0-1.66-.096-2.92-.287-3.8-.19-.88-.5-1.53-.92-1.95-.626-.63-1.74-1.07-3.345-1.32-1.604-.25-4.646-.38-9.127-.38-4.643 0-7.56.52-8.75 1.57-1.19 1.05-1.785 3.14-1.785 6.29 0 2.58.39 4.36 1.164 5.34.77.98 2.27 1.56 4.49 1.74l14.17 1.18c3.71.32 6.31 1.34 7.81 3.07 1.49 1.72 2.24 4.6 2.24 8.64 0 2.942-.19 5.16-.58 6.64-.39 1.49-1.02 2.72-1.91 3.71-1.09 1.23-2.56 2.1-4.408 2.59s-5.21.74-10.095.74h-2.24c-4.16 0-7.1-.21-8.824-.63s-3.16-1.16-4.31-2.21c-1.13-.97-1.96-2.28-2.5-3.938-.53-1.66-.8-3.758-.8-6.3v-2.2z" fill="#FFF"/>
  <path d="M400.986 340.085v-271c0-2.75-2.25-5-5-5h-332c-2.75 0-5 2.25-5 5v271h342z" fill="#FFDD30"/>
  <path d="M344.884 183.866l-17.796-45.086c-.606-1.535-2.45-2.79-4.102-2.79h-70c-1.65 0-3 1.35-3 3v72.996h-6.96l-.018-24.886c-.002-2.75-1.888-6.23-4.19-7.733l-89.096-58.15c-2.303-1.504-5.574-.963-7.27 1.203l-4.932 6.3c-1.694 2.156-1.437 5.46.576 7.336l6.89 6.424v44.213c0 4.41-3.59 8-8 8s-8-3.59-8-8c0-2.76-2.24-5-5-5s-5 2.24-5 5c0 9.925 8.075 18 18 18s18-8.075 18-18v-34.89l39.436 36.76c2.012 1.875 3.657 5.66 3.657 8.41v15.013h-79.1c-2.75 0-5 2.25-5 5v32c0 2.75 2.25 5 5 5h25c.09 16.49 13.48 29.833 29.99 29.833s29.9-13.35 29.99-29.84h67.01c.09 16.49 13.48 29.83 29.99 29.83s29.9-13.34 29.99-29.84h10c2.75 0 5-2.25 5-5v-59.33c0-1.65-.5-4.26-1.11-5.79zm-170.898 84.952c-8.284 0-15-6.716-15-15s6.716-15 15-15 15 6.716 15 15-6.716 15-15 15zm127 0c-8.284 0-15-6.716-15-15s6.716-15 15-15 15 6.716 15 15-6.716 15-15 15zm28.5-74.245c0 1.1-.9 2-2 2h-55.5c-1.1 0-2-.9-2-2v-46.167c0-1.1.9-2 2-2h42.063c1.1 0 2.29.85 2.65 1.89l12.13 34.777c.36 1.04.66 2.79.66 3.89v7.61h-.01z" fill="#010002"/>
</svg>
