<svg xmlns="http://www.w3.org/2000/svg" width="1986" height="460" viewBox="0 0 1986 460">
  <linearGradient id="a" gradientUnits="userSpaceOnUse" x1="215" y1="64" x2="215" y2="396">
    <stop offset="0" stop-color="#FFDD30"/>
    <stop offset="1" stop-color="#FCBA04"/>
  </linearGradient>
  <path d="M386 376c0 11.046-8.954 20-20 20H64c-11.046 0-20-8.954-20-20V84c0-11.046 8.954-20 20-20h302c11.046 0 20 8.954 20 20v292z" fill="url(#a)"/>
  <path d="M330.037 211.78l-17.797-45.087c-.606-1.535-2.45-2.79-4.102-2.79h-70c-1.65 0-3 1.35-3 3v72.995h-6.96l-.018-24.885c-.002-2.75-1.888-6.23-4.19-7.733l-89.095-58.158c-2.303-1.503-5.574-.962-7.27 1.204l-4.932 6.3c-1.695 2.164-1.437 5.47.575 7.345l6.89 6.43v44.22c0 4.41-3.59 8-8 8s-8-3.59-8-8c0-2.76-2.24-5-5-5s-5 2.24-5 5c0 9.93 8.075 18 18 18s18-8.07 18-18v-34.9l39.436 36.76c2.012 1.88 3.657 5.66 3.657 8.41v15.01h-79.09c-2.75 0-5 2.25-5 5v32c0 2.75 2.25 5 5 5h25.01c.09 16.49 13.49 29.84 30 29.84s29.91-13.34 30-29.83h67.01c.09 16.49 13.49 29.84 30 29.84s29.91-13.34 30-29.83h10.01c2.75 0 5-2.25 5-5v-59.33c0-1.65-.49-4.25-1.1-5.79zm-170.9 84.95c-8.283 0-15-6.716-15-15s6.717-15 15-15 15 6.716 15 15c0 8.285-6.714 15-15 15zm127 0c-8.283 0-15-6.716-15-15s6.717-15 15-15 15 6.716 15 15c0 8.285-6.714 15-15 15zm28.5-74.244c0 1.1-.9 2-2 2h-55.5c-1.1 0-2-.9-2-2V176.32c0-1.1.9-2 2-2H299.2c1.1 0 2.298.85 2.66 1.888l12.12 34.778c.363 1.04.66 2.79.66 3.89v7.61z" fill="#010002"/>
  <path d="M454.592 328.746V130.99h21.78v85.397h113.954V130.99h21.78v197.756h-21.78v-91.64H476.373v91.64h-21.78zm212.128 0V130.99h138.656v20.983H688.5v64.68h113.56v20.187H688.5v71.188h116.876v20.72H666.72zm180.652 0V130.99h21.516v177.038h112.094v20.72h-133.61zm169.23 0V130.99h83.273c22.224 0 37.52 3.3 45.887 9.894 8.367 6.597 12.55 18.35 12.55 35.262v29.883c0 17.35-4.14 29.35-12.417 35.99-8.28 6.64-23.62 9.96-46.02 9.96h-61.492v76.76h-21.78zm118.867-122.718v-29.086c0-9.563-2.24-16.114-6.71-19.656-4.47-3.54-14.19-5.313-29.15-5.313h-61.23v79.156h61.22c14.69 0 24.35-1.82 28.95-5.45 4.6-3.63 6.9-10.18 6.9-19.66zm72.54-9.696c0-25.32 4.85-42.942 14.54-52.86 9.69-9.914 26.8-14.874 51.33-14.874H1297c24.35 0 41.438 4.273 51.266 12.816 9.828 8.546 14.742 23.043 14.742 43.496v8.633h-22.578v-5.445c0-14.962-3.055-25.188-9.164-30.68-6.11-5.49-18.063-8.234-35.86-8.234h-15.272c-11.953 0-20.652.73-26.098 2.19s-9.983 3.92-13.613 7.372c-3.632 3.366-6.176 7.77-7.637 13.215s-2.19 15.39-2.19 29.82v56.31c0 14.35.73 24.24 2.19 29.69s4.005 9.85 7.637 13.22c3.63 3.46 8.035 5.91 13.215 7.37s14.012 2.19 26.496 2.19h15.273c18.24 0 30.368-2.87 36.39-8.63 6.022-5.75 9.032-16.78 9.032-33.07 0-2.48-.03-4.38-.07-5.71-.05-1.33-.11-2.57-.2-3.72H1363v13.02c0 21.96-4.762 37.24-14.278 45.82-9.52 8.59-26.763 12.89-51.73 12.89h-23.11c-24.526 0-41.637-4.95-51.33-14.87-9.697-9.91-14.545-27.53-14.545-52.85v-67.07zm173.21 132.414l73.04-197.757h35.99l73.44 197.75h-22.58l-18.86-50.6h-100l-18.46 50.6h-22.58zm48.34-70.125h85.66l-39.45-106.64h-7.04l-39.18 106.65zm167.5 70.13V130.99h89.25c22.22 0 37.52 3.3 45.88 9.894 8.36 6.597 12.55 18.35 12.55 35.262v29.883c0 10.35-2.11 18.48-6.31 24.37-4.21 5.89-10.61 9.58-19.19 11.09 9.38 2.21 15.98 6.24 19.79 12.08 3.8 5.84 5.71 15.05 5.71 27.62v47.54h-22.84v-40.77c0-14.17-2.24-23.75-6.71-28.76-4.47-5-13.22-7.51-26.23-7.51h-70.13v77.03h-21.79zm84.86-176.77h-63.09v79.16h63.08c16.47 0 27.24-2.03 32.34-6.11 5.09-4.07 7.63-11.37 7.63-21.91V180c0-10.71-2.46-18.063-7.37-22.047s-15.79-5.98-32.61-5.98zm106.68 112.36h22.05v3.72c0 11.78.88 20.45 2.65 26.03 1.77 5.58 4.69 9.52 8.77 11.82 3.19 1.77 8.1 3.04 14.74 3.79 6.64.76 20.32 1.13 41.04 1.13 11.24 0 19.96-.73 26.16-2.19 6.2-1.46 10.8-3.82 13.82-7.1 1.68-1.77 2.92-4.78 3.72-9.03s1.19-10 1.19-17.26c0-14.69-1.49-23.93-4.45-27.69-2.97-3.76-8.84-6-17.6-6.71l-60.96-4.78c-18.24-1.41-30.86-5.98-37.86-13.68-7-7.7-10.49-20.67-10.49-38.91 0-11.51 1.15-20.76 3.45-27.753 2.3-6.99 6.02-12.79 11.153-17.395 3.982-3.54 9.56-6.042 16.732-7.503s19.833-2.19 37.984-2.19h7.04c20.27 0 34.55.977 42.83 2.92 8.28 1.95 15.21 5.316 20.784 10.097 3.806 3.19 6.62 7.73 8.434 13.618 1.81 5.89 2.72 13.216 2.72 21.98 0 2.57-.025 4.54-.07 5.91-.05 1.375-.11 2.59-.2 3.65h-22.05v-4.91c0-7.26-.42-12.815-1.26-16.667-.843-3.857-2.19-6.71-4.05-8.57-2.746-2.745-7.64-4.67-14.68-5.78-7.04-1.11-20.385-1.66-40.04-1.66-20.37 0-33.16 2.3-38.385 6.9-5.227 4.605-7.837 13.813-7.837 27.625 0 11.337 1.7 19.15 5.11 23.44 3.405 4.3 9.98 6.84 19.72 7.64l62.155 5.18c16.29 1.417 27.71 5.91 34.267 13.48 6.555 7.57 9.83 20.21 9.83 37.917 0 12.93-.84 22.646-2.52 29.153-1.68 6.51-4.47 11.933-8.366 16.27-4.78 5.4-11.22 9.19-19.32 11.355-8.1 2.17-22.864 3.255-44.29 3.255h-9.83c-18.24 0-31.144-.93-38.714-2.79s-13.88-5.09-18.928-9.695c-4.96-4.25-8.614-10-10.96-17.265-2.346-7.26-3.52-16.47-3.52-27.626v-9.692z"/>
</svg>
