<svg xmlns="http://www.w3.org/2000/svg" width="460" height="460" viewBox="0 0 460 460">
  <path d="M59 415c-10.478 0-19-8.523-19-19V64c0-10.477 8.522-19 19-19h342c10.476 0 19 8.523 19 19v332c0 10.477-8.524 19-19 19H59z" fill="#010002"/>
  <path d="M401 49c8.25 0 15 6.75 15 15v332c0 8.25-6.75 15-15 15H59c-8.25 0-15-6.75-15-15V64c0-8.25 6.75-15 15-15h342m0-8H59c-12.683 0-23 10.318-23 23v332c0 12.682 10.317 23 23 23h342c12.68 0 23-10.318 23-23V64c0-12.682-10.32-23-23-23z" fill="#FFF"/>
  <path d="M401 340.01v-271c0-2.75-2.25-5-5-5H64c-2.75 0-5 2.25-5 5v271h342z" fill="#FFDD30"/>
  <path d="M344.897 183.79L327.1 138.704c-.606-1.535-2.45-2.79-4.1-2.79h-70c-1.65 0-3 1.35-3 3v72.996h-6.963l-.017-24.886c0-2.75-1.88-6.23-4.19-7.733l-89.09-58.15c-2.304-1.5-5.575-.96-7.27 1.21l-4.933 6.3c-1.695 2.17-1.437 5.47.575 7.35l6.89 6.42v44.22c0 4.41-3.59 8-8 8s-8-3.59-8-8c0-2.76-2.24-5-5-5s-5 2.24-5 5c0 9.93 8.075 18 18 18s18-8.07 18-18v-34.89l39.436 36.76c2.01 1.88 3.65 5.66 3.65 8.41v15.01h-79.09c-2.75 0-5 2.25-5 5v32c0 2.75 2.25 5 5 5h25.005c.09 16.49 13.483 29.84 29.996 29.84s29.9-13.34 29.99-29.83H271c.09 16.49 13.484 29.84 29.997 29.84s29.905-13.342 29.995-29.833H341c2.75 0 5-2.25 5-5V189.6c0-1.65-.497-4.258-1.103-5.79zM174 268.742c-8.285 0-15-6.716-15-15s6.715-15 15-15 15 6.716 15 15-6.717 15-15 15zm127 0c-8.285 0-15-6.716-15-15s6.715-15 15-15 15 6.716 15 15-6.717 15-15 15zm28.5-74.245c0 1.1-.9 2-2 2H272c-1.1 0-2-.9-2-2V148.33c0-1.1.9-2 2-2h42.062c1.1 0 2.296.85 2.658 1.89l12.13 34.777c.36 1.04.66 2.79.66 3.89v7.61h-.01z" fill="#010002"/>
  <path d="M60.128 394.887V349.81h4.965v19.466h25.975V349.81h4.965v45.077h-4.965v-20.89H65.093v20.89h-4.965zm48.352 0V349.81h31.606v4.783h-26.64v14.743h25.884v4.602h-25.885v16.227h26.64v4.723H108.48zm41.178 0V349.81h4.904v40.354h25.55v4.723H149.66zm38.575 0V349.81h18.982c5.064 0 8.552.752 10.46 2.255 1.906 1.504 2.86 4.183 2.86 8.038v6.812c0 3.956-.944 6.69-2.83 8.204-1.89 1.51-5.385 2.27-10.49 2.27h-14.018v17.49h-4.964zm27.095-27.973v-6.63c0-2.18-.51-3.673-1.53-4.48-1.02-.807-3.233-1.21-6.644-1.21h-13.957v18.042h13.957c3.35 0 5.55-.414 6.6-1.24 1.05-.83 1.574-2.322 1.574-4.482zm16.537-2.21c0-5.772 1.104-9.788 3.315-12.05 2.21-2.26 6.11-3.39 11.7-3.39h5.268c5.55 0 9.445.974 11.686 2.92 2.24 1.95 3.36 5.253 3.36 9.916v1.968h-5.146v-1.24c0-3.412-.696-5.743-2.09-6.994-1.392-1.25-4.116-1.877-8.173-1.877h-3.48c-2.726 0-4.708.167-5.95.5-1.24.333-2.275.893-3.103 1.68-.827.767-1.407 1.77-1.74 3.012-.333 1.24-.5 3.5-.5 6.79v12.83c0 3.27.167 5.52.5 6.76.333 1.24.913 2.24 1.74 3.01.827.78 1.83 1.34 3.013 1.68 1.18.33 3.193.5 6.04.5h3.48c4.157 0 6.923-.66 8.295-1.97 1.372-1.31 2.06-3.83 2.06-7.54 0-.57-.006-1-.016-1.3-.01-.31-.025-.59-.046-.85h5.116v2.96c0 5-1.085 8.48-3.254 10.44-2.17 1.96-6.1 2.93-11.792 2.93h-5.268c-5.59 0-9.49-1.13-11.7-3.39-2.21-2.26-3.315-6.275-3.315-12.05V364.7zm39.482 30.183l16.65-45.077h8.204l16.75 45.077h-5.15l-4.3-11.534h-22.79l-4.2 11.534h-5.14zm11.02-15.985h19.525l-8.99-24.31h-1.605l-8.93 24.31zm38.18 15.985V349.81h20.344c5.07 0 8.56.752 10.46 2.255 1.91 1.504 2.86 4.183 2.86 8.038v6.812c0 2.36-.47 4.213-1.43 5.555-.96 1.342-2.42 2.185-4.37 2.528 2.14.505 3.65 1.423 4.51 2.755s1.31 3.43 1.31 6.297v10.838h-5.2v-9.294c0-3.23-.51-5.414-1.53-6.554-1.02-1.14-3.01-1.71-5.98-1.71h-15.99v17.56h-4.96zm19.345-40.294h-14.38v18.043h14.38c3.754 0 6.21-.464 7.372-1.393 1.16-.928 1.74-2.593 1.74-4.995v-5.268c0-2.442-.56-4.117-1.68-5.025-1.12-.908-3.597-1.362-7.432-1.362zm24.315 25.61h5.025v.85c0 2.684.202 4.66.605 5.933.404 1.27 1.07 2.17 1.998 2.694.727.404 1.848.69 3.36.863 1.515.172 4.632.257 9.355.257 2.563 0 4.55-.167 5.965-.5 1.412-.333 2.46-.873 3.148-1.62.383-.403.666-1.09.848-2.06s.28-2.28.28-3.935c0-3.35-.34-5.454-1.01-6.312-.67-.857-2.01-1.367-4.01-1.53l-13.89-1.09c-4.15-.322-7.03-1.36-8.63-3.117-1.59-1.756-2.39-4.712-2.39-8.87 0-2.624.26-4.732.79-6.327.53-1.6 1.37-2.92 2.55-3.97.91-.81 2.18-1.38 3.82-1.71s4.52-.5 8.66-.5h1.608c4.62 0 7.875.22 9.76.66 1.89.44 3.47 1.21 4.74 2.3.868.72 1.51 1.76 1.92 3.1.417 1.34.624 3.01.624 5.01 0 .58-.006 1.03-.016 1.34-.01.31-.022.59-.042.83h-5.02v-1.12c0-1.66-.095-2.92-.286-3.8-.194-.88-.5-1.53-.925-1.95-.63-.63-1.74-1.07-3.35-1.32-1.605-.25-4.647-.38-9.13-.38-4.64 0-7.56.52-8.75 1.57-1.19 1.05-1.783 3.14-1.783 6.29 0 2.582.39 4.364 1.166 5.342.78.98 2.278 1.56 4.498 1.74l14.17 1.18c3.715.322 6.32 1.346 7.81 3.072 1.496 1.723 2.24 4.604 2.24 8.64 0 2.946-.19 5.16-.57 6.644-.39 1.49-1.02 2.72-1.91 3.71-1.09 1.23-2.56 2.1-4.405 2.59s-5.22.74-10.1.74h-2.24c-4.16 0-7.1-.21-8.826-.63s-3.167-1.16-4.317-2.21c-1.13-.97-1.965-2.28-2.5-3.938-.535-1.658-.803-3.757-.803-6.3v-2.2z" fill="#FFF"/>
</svg>
