<svg xmlns="http://www.w3.org/2000/svg" width="382" height="372" viewBox="0 0 382 372"><path fill="#010002" d="M377 352c0 8.25-6.75 15-15 15H20c-8.25 0-15-6.75-15-15V20c0-8.25 6.75-15 15-15h342c8.25 0 15 6.75 15 15v332z"/><path fill="#EBC22E" d="M362 296V25c0-2.75-2.25-5-5-5H25c-2.75 0-5 2.25-5 5v271h342z"/><path fill="#010002" d="M136.682 186.696c-12.703 0-23 10.297-23 23s10.297 23 23 23 23-10.297 23-23-10.297-23-23-23zm0 33c-5.523 0-10-4.477-10-10s4.477-10 10-10 10 4.477 10 10-4.477 10-10 10z"/><path fill="#010002" d="M307.682 163.667h-208c-5.5 0-10 4.5-10 10v26c0 5.5 4.5 10 10 10h10c.017-14.898 12.098-26.97 27-26.97s26.983 12.072 27 26.97h80c.016-14.898 12.097-26.97 27-26.97s26.982 12.072 26.998 26.97h10c5.5 0 10-4.5 10-10v-26c.002-5.5-4.498-10-9.998-10z"/><path fill="#010002" d="M270.682 186.696c-12.703 0-23 10.297-23 23s10.297 23 23 23 23-10.297 23-23-10.297-23-23-23zm0 33c-5.523 0-10-4.477-10-10s4.477-10 10-10 10 4.477 10 10-4.477 10-10 10zm44.812-79.526l-18.602-38.22c-1.203-2.472-2.724-5.197-3.378-6.056-.655-.86-3.44-1.56-6.19-1.56h-55.842c-2.75 0-5 2.25-5 5v75.332c0 2.75 2.25 5 5 5h81.2c2.75 0 5-2.25 5-5v-25.002c0-2.75-.985-7.022-2.188-9.495zm-60.75 14.622h-6.492c-.414.72-1.18 1.208-2.07 1.208-1.322 0-2.395-1.073-2.395-2.396s1.073-2.396 2.396-2.396c.89 0 1.656.49 2.07 1.208h6.492v2.376zm48.77-9.292c0 .55-.45 1-1 1h-60c-.55 0-1-.45-1-1v-40c0-.55.45-1 1-1h41.433c.55 0 1.194.406 1.432.902l17.7 36.99c.23.496.43 1.352.43 1.902v1.206z"/><path d="M143.497 158.49l-26.867-34.543 56.474 34.542h32.192c-.542-.61-1.144-1.16-1.87-1.61L85.403 84.69c-3.544-2.16-8.126-1.49-10.892 1.61-2.76 3.096-2.92 7.726-.37 11.003l47.59 61.184h21.77z"/><path d="M84.598 202.842c-.036-.342-.923-8.008-6.44-8.734v-1.917c0-.23-.092-.45-.256-.61-.164-.16-.366-.24-.616-.25l-.756.02c.008-.06.02-.13.02-.19v-2.22l-.003-.03c2.925-.79 5.087-3.46 5.087-6.63 0-3.44-2.542-6.29-5.844-6.79v-2.13c2.23-.47 3.91-2.46 3.91-4.83v-5.15c0-2.37-1.68-4.35-3.91-4.83v-4.09c2.23-.47 3.91-2.46 3.91-4.83v-5.15c0-2.37-1.68-4.35-3.91-4.83v-4.09c2.23-.47 3.91-2.46 3.91-4.83v-5.15c0-2.37-1.68-4.35-3.91-4.83v-4.09c2.23-.472 3.91-2.46 3.91-4.83v-5.152c0-2.724-2.216-4.94-4.942-4.94-2.725 0-4.942 2.215-4.942 4.94v5.156c0 2.37 1.68 4.355 3.91 4.83v4.09c-2.23.48-3.91 2.46-3.91 4.83v5.16c0 2.37 1.68 4.354 3.91 4.83v4.09c-2.23.477-3.91 2.46-3.91 4.83v5.157c0 2.37 1.68 4.355 3.91 4.83v4.09c-2.23.48-3.91 2.46-3.91 4.83v5.16c0 2.37 1.68 4.35 3.91 4.83v2.13c-3.302.5-5.844 3.35-5.844 6.79 0 3.22 2.232 5.925 5.23 6.665v2.21c0 .09.012.17.024.25l-.793.01c-.47.005-.847.39-.847.86v4.08c0 .38.253.716.618.824.243.075 5.95 1.845 5.186 8.35-.027.32-.34 2.92-3.43 2.92-1.495 0-3.433-1.006-5.043-2.987-1.638-2.015-2.372-3.53-2.083-4.92.095-.454-.395-1.76-.844-1.87-.45-.113-.906.156-1.03.6-.077.27-1.82 6.69 1.317 11.41 1.703 2.56 4.49 4.098 8.34 4.577l.264.004c1.04 0 4.64-.215 7.21-2.98 2.02-2.164 2.9-5.33 2.6-9.43zm-12.203-91.047v-5.156c0-1.31 1.06-2.37 2.363-2.37s2.363 1.06 2.363 2.36v5.15c0 1.3-1.06 2.36-2.36 2.36s-2.36-1.06-2.36-2.37zm0 18.907v-5.156c0-1.303 1.06-2.363 2.363-2.363s2.363 1.06 2.363 2.363v5.156c0 1.303-1.06 2.363-2.36 2.363s-2.36-1.06-2.36-2.363zm0 18.907v-5.16c0-1.31 1.06-2.37 2.363-2.37s2.363 1.06 2.363 2.36v5.15c0 1.3-1.06 2.36-2.36 2.36s-2.36-1.06-2.36-2.37zm0 18.9v-5.16c0-1.31 1.06-2.37 2.363-2.37s2.363 1.06 2.363 2.36v5.15c0 1.3-1.06 2.36-2.36 2.36s-2.36-1.06-2.36-2.37zm-1.074 13.75c0-1.9 1.55-3.44 3.44-3.44s3.44 1.54 3.44 3.44-1.54 3.44-3.44 3.44-3.44-1.54-3.44-3.44z"/><path fill="#010002" d="M115.966 157.364h94.972v8.344h-94.972z"/><path d="M20.803 351.084v-44.38h5.873v18.224h23.068v-18.225h5.873v44.38h-5.873v-20.918H26.676v20.92h-5.873zm44.714 0v-44.38h32.09v5.237H71.39v13.6h24.552v5.21H71.39v15.11h27.246v5.24h-33.12zm40.99 0v-44.38h5.873v39.143h21.857v5.237h-27.73zm34.723 0v-44.38h16.74c2.947 0 5.198.14 6.752.423 2.18.363 4.006 1.055 5.48 2.074 1.472 1.02 2.658 2.45 3.556 4.29.898 1.84 1.347 3.86 1.347 6.06 0 3.78-1.2 6.97-3.603 9.59-2.402 2.62-6.74 3.92-13.018 3.92H147.1v18.04h-5.87zm5.874-23.28h11.474c3.794 0 6.488-.706 8.083-2.12 1.6-1.41 2.4-3.4 2.4-5.963 0-1.85-.47-3.44-1.41-4.76-.94-1.32-2.17-2.19-3.71-2.62-.99-.26-2.81-.39-5.48-.39h-11.35v15.87zm83.25 7.72l5.874 1.482c-1.23 4.824-3.446 8.502-6.645 11.034-3.2 2.533-7.11 3.8-11.73 3.8-4.784 0-8.674-.974-11.672-2.92-2.99-1.95-5.27-4.77-6.84-8.463s-2.34-7.66-2.34-11.897c0-4.62.89-8.653 2.65-12.094 1.77-3.44 4.28-6.056 7.54-7.842 3.26-1.786 6.85-2.68 10.76-2.68 4.44 0 8.18 1.13 11.2 3.392s5.14 5.44 6.33 9.536l-5.78 1.362c-1.03-3.23-2.52-5.58-4.48-7.054-1.95-1.474-4.42-2.21-7.38-2.21-3.41 0-6.26.817-8.55 2.452s-3.9 3.83-4.83 6.584c-.93 2.756-1.39 5.597-1.39 8.522 0 3.774.55 7.07 1.65 9.884 1.1 2.816 2.81 4.92 5.13 6.313 2.32 1.393 4.84 2.09 7.54 2.09 3.29 0 6.08-.95 8.36-2.847 2.29-1.895 3.83-4.71 4.64-8.445zm8.236 15.56l17.044-44.38h6.327l18.17 44.38h-6.69l-5.17-13.44H249.7l-4.874 13.44h-6.236zm12.806-18.225h15.046l-4.632-12.3c-1.413-3.74-2.462-6.8-3.148-9.21-.565 2.84-1.362 5.67-2.392 8.47l-4.874 13.01zm33.512 18.22V306.7h19.678c3.955 0 6.963.4 9.02 1.196 2.06.796 3.704 2.203 4.936 4.222 1.23 2.02 1.847 4.25 1.847 6.69 0 3.147-1.02 5.802-3.06 7.96-2.04 2.16-5.19 3.533-9.45 4.118 1.55.747 2.73 1.483 3.54 2.21 1.71 1.574 3.34 3.542 4.87 5.903l7.72 12.08h-7.39l-5.88-9.24c-1.72-2.67-3.13-4.7-4.24-6.12-1.11-1.41-2.11-2.4-2.98-2.97-.88-.57-1.77-.96-2.68-1.19-.67-.14-1.76-.21-3.27-.21h-6.81v19.71h-5.87zm5.873-24.8h12.63c2.69 0 4.79-.28 6.3-.84 1.52-.56 2.67-1.44 3.45-2.67.79-1.22 1.18-2.55 1.18-3.98 0-2.1-.76-3.83-2.28-5.18-1.52-1.36-3.93-2.03-7.22-2.03h-14.05v14.68zm36.82 10.53l5.54-.49c.27 2.22.88 4.04 1.83 5.46.96 1.42 2.45 2.57 4.47 3.45 2.02.88 4.29 1.31 6.82 1.31 2.24 0 4.22-.33 5.94-1 1.72-.66 3-1.58 3.83-2.74.84-1.16 1.26-2.42 1.26-3.8 0-1.396-.4-2.61-1.21-3.65-.81-1.04-2.14-1.91-3.99-2.62-1.19-.466-3.83-1.19-7.9-2.167-4.08-.98-6.93-1.9-8.57-2.77-2.12-1.11-3.7-2.49-4.74-4.135-1.04-1.64-1.56-3.48-1.56-5.52 0-2.24.64-4.337 1.91-6.285 1.27-1.95 3.13-3.426 5.57-4.435 2.44-1.01 5.16-1.512 8.14-1.512 3.29 0 6.19.53 8.71 1.59 2.51 1.06 4.447 2.62 5.8 4.68 1.35 2.06 2.076 4.39 2.18 6.992l-5.63.42c-.306-2.8-1.33-4.92-3.076-6.354-1.747-1.436-4.326-2.15-7.736-2.15-3.56 0-6.14.65-7.77 1.95-1.626 1.3-2.44 2.87-2.44 4.706 0 1.596.576 2.907 1.73 3.937 1.13 1.03 4.08 2.085 8.853 3.165s8.05 2.02 9.824 2.83c2.58 1.19 4.49 2.7 5.72 4.524 1.23 1.826 1.85 3.93 1.85 6.312 0 2.36-.68 4.583-2.03 6.673-1.35 2.084-3.293 3.71-5.826 4.87-2.53 1.164-5.382 1.744-8.55 1.744-4.016 0-7.38-.59-10.096-1.76s-4.842-2.93-6.39-5.28c-1.54-2.35-2.36-5.01-2.44-7.98z" fill="#FFF"/></svg>