<?xml version="1.0" encoding="utf-8"?>
<!-- Generator: Adobe Illustrator 17.0.0, SVG Export Plug-In . SVG Version: 6.00 Build 0)  -->
<!DOCTYPE svg PUBLIC "-//W3C//DTD SVG 1.1//EN" "http://www.w3.org/Graphics/SVG/1.1/DTD/svg11.dtd">
<svg version="1.1" id="Camada_1" xmlns="http://www.w3.org/2000/svg" xmlns:xlink="http://www.w3.org/1999/xlink" x="0px" y="0px"
	 width="220px" height="220px" viewBox="0 0 220 220" style="enable-background:new 0 0 220 220;" xml:space="preserve">
<path style="fill:#FAC200;" d="M211.718,175.433V14.23c0-1.636-1.338-2.974-2.974-2.974H11.256c-1.636,0-2.974,1.338-2.974,2.974
	v161.203H211.718z"/>
<g>
	<path style="fill:#FFFFFF;" d="M11.518,208.199v-26.4h3.494v10.841h13.722v-10.841h3.494v26.4h-3.494v-12.443H15.011v12.443H11.518
		z"/>
	<path style="fill:#FFFFFF;" d="M38.115,208.199v-26.4h19.088v3.116H41.609V193h14.604v3.097H41.609v8.986h16.207v3.115H38.115z"/>
	<path style="fill:#FFFFFF;" d="M62.498,208.199v-26.4h3.494v23.285h13.002v3.115H62.498z"/>
	<path style="fill:#FFFFFF;" d="M83.153,208.199v-26.4h9.958c1.753,0,3.091,0.084,4.016,0.252c1.297,0.216,2.383,0.628,3.259,1.234
		c0.876,0.606,1.582,1.456,2.116,2.548c0.534,1.093,0.801,2.293,0.801,3.602c0,2.245-0.715,4.145-2.143,5.7
		c-1.429,1.554-4.01,2.332-7.743,2.332h-6.771v10.733H83.153z M86.647,194.351h6.825c2.257,0,3.86-0.42,4.808-1.261
		c0.948-0.84,1.423-2.023,1.423-3.548c0-1.104-0.279-2.05-0.837-2.837c-0.558-0.786-1.294-1.305-2.206-1.557
		c-0.588-0.156-1.675-0.234-3.259-0.234h-6.753V194.351z"/>
	<path style="fill:#FFFFFF;" d="M129.625,198.943l3.494,0.882c-0.733,2.87-2.05,5.057-3.952,6.564
		c-1.903,1.507-4.229,2.26-6.978,2.26c-2.845,0-5.159-0.579-6.942-1.737c-1.782-1.159-3.139-2.837-4.07-5.034
		c-0.931-2.197-1.395-4.556-1.395-7.077c0-2.749,0.525-5.147,1.575-7.194c1.05-2.047,2.546-3.602,4.485-4.665
		c1.938-1.062,4.072-1.594,6.402-1.594c2.641,0,4.862,0.672,6.663,2.017c1.801,1.345,3.056,3.236,3.764,5.673l-3.44,0.81
		c-0.612-1.92-1.501-3.319-2.665-4.196c-1.165-0.877-2.629-1.315-4.394-1.315c-2.029,0-3.725,0.486-5.088,1.459
		c-1.363,0.972-2.32,2.278-2.872,3.916c-0.552,1.639-0.828,3.329-0.828,5.07c0,2.245,0.327,4.205,0.982,5.879
		c0.654,1.675,1.671,2.927,3.052,3.755c1.38,0.828,2.875,1.243,4.484,1.243c1.957,0,3.614-0.564,4.97-1.693
		C128.227,202.839,129.145,201.164,129.625,198.943z"/>
	<path style="fill:#FFFFFF;" d="M134.524,208.199l10.138-26.4h3.764l10.805,26.4h-3.98l-3.079-7.996h-11.039l-2.899,7.996H134.524z
		 M142.141,197.358h8.95l-2.755-7.311c-0.841-2.221-1.464-4.046-1.873-5.474c-0.336,1.693-0.81,3.374-1.423,5.042L142.141,197.358z"
		/>
	<path style="fill:#FFFFFF;" d="M162.076,208.199v-26.4h11.705c2.353,0,4.142,0.237,5.366,0.711
		c1.225,0.475,2.203,1.312,2.935,2.512c0.732,1.201,1.098,2.528,1.098,3.98c0,1.873-0.606,3.452-1.819,4.736
		c-1.213,1.285-3.086,2.101-5.618,2.449c0.924,0.444,1.627,0.882,2.107,1.315c1.02,0.936,1.987,2.107,2.899,3.512l4.592,7.185
		h-4.394l-3.494-5.492c-1.021-1.585-1.861-2.797-2.521-3.638c-0.66-0.84-1.251-1.428-1.774-1.765
		c-0.522-0.336-1.053-0.57-1.593-0.702c-0.396-0.084-1.044-0.126-1.945-0.126h-4.052v11.723H162.076z M165.569,193.451h7.509
		c1.597,0,2.845-0.165,3.746-0.495c0.9-0.33,1.585-0.858,2.053-1.585c0.468-0.726,0.702-1.515,0.702-2.368
		c0-1.248-0.453-2.275-1.36-3.079c-0.906-0.805-2.338-1.207-4.295-1.207h-8.356V193.451z"/>
	<path style="fill:#FFFFFF;" d="M187.467,199.717l3.295-0.288c0.156,1.321,0.519,2.404,1.089,3.25
		c0.57,0.847,1.456,1.531,2.656,2.053c1.2,0.523,2.551,0.784,4.052,0.784c1.333,0,2.509-0.198,3.53-0.594
		c1.02-0.396,1.78-0.939,2.278-1.63c0.498-0.69,0.747-1.443,0.747-2.26c0-0.828-0.24-1.552-0.72-2.17
		c-0.48-0.618-1.273-1.137-2.377-1.557c-0.709-0.276-2.275-0.705-4.7-1.288c-2.425-0.582-4.124-1.131-5.096-1.647
		c-1.261-0.66-2.2-1.48-2.819-2.458c-0.618-0.978-0.927-2.073-0.927-3.286c0-1.333,0.378-2.578,1.135-3.737
		c0.756-1.158,1.861-2.038,3.313-2.638c1.452-0.6,3.067-0.9,4.844-0.9c1.956,0,3.683,0.315,5.177,0.945
		c1.495,0.63,2.644,1.558,3.449,2.783c0.804,1.225,1.236,2.611,1.297,4.16l-3.349,0.252c-0.18-1.668-0.789-2.929-1.828-3.782
		c-1.038-0.852-2.572-1.279-4.601-1.279c-2.113,0-3.653,0.387-4.619,1.161c-0.966,0.774-1.449,1.708-1.449,2.801
		c0,0.949,0.342,1.729,1.026,2.341c0.672,0.612,2.428,1.24,5.268,1.882c2.839,0.642,4.787,1.204,5.843,1.683
		c1.536,0.709,2.671,1.606,3.404,2.692c0.732,1.087,1.098,2.339,1.098,3.755c0,1.405-0.403,2.728-1.207,3.971
		c-0.805,1.242-1.96,2.209-3.467,2.899c-1.506,0.691-3.203,1.036-5.087,1.036c-2.389,0-4.391-0.349-6.006-1.044
		c-1.614-0.696-2.881-1.744-3.799-3.142C187.998,203.064,187.515,201.482,187.467,199.717z"/>
</g>
<g>
	<path d="M77.689,110.414c-7.556,0-13.681,6.125-13.681,13.681c0,7.556,6.125,13.681,13.681,13.681s13.681-6.125,13.681-13.681
		C91.371,116.539,85.245,110.414,77.689,110.414z M77.689,130.044c-3.285,0-5.948-2.663-5.948-5.948s2.663-5.948,5.948-5.948
		c3.285,0,5.948,2.663,5.948,5.948S80.975,130.044,77.689,130.044z"/>
	<path d="M157.398,110.414c-7.556,0-13.681,6.125-13.681,13.681c0,7.556,6.125,13.681,13.681,13.681s13.681-6.125,13.681-13.681
		C171.08,116.539,164.954,110.414,157.398,110.414z M157.398,130.044c-3.285,0-5.948-2.663-5.948-5.948s2.663-5.948,5.948-5.948
		c3.285,0,5.948,2.663,5.948,5.948S160.684,130.044,157.398,130.044z"/>
	<path d="M184.054,82.738l-11.065-22.734c-0.716-1.471-1.62-3.092-2.009-3.603c-0.389-0.511-2.046-0.929-3.682-0.929h-33.217
		c-1.636,0-2.974,1.338-2.974,2.974v38.268h-9.247v-3.749h-4.084c-0.125-0.098-0.245-0.199-0.384-0.284L47.185,49.741
		c-2.108-1.289-4.834-0.886-6.479,0.955c-1.645,1.842-1.74,4.596-0.224,6.545L68.27,92.966h-2.903v3.749H55.68
		c-3.272,0-5.948,2.677-5.948,5.948v15.466c0,3.272,2.677,5.948,5.948,5.948h5.949c0.009-8.862,7.196-16.043,16.06-16.043
		s16.051,7.181,16.06,16.043h47.588c0.009-8.862,7.196-16.043,16.06-16.043s16.051,7.181,16.06,16.043h5.949
		c3.272,0,5.948-2.677,5.948-5.948v-14.871v-0.595V88.386C185.356,86.75,184.77,84.209,184.054,82.738z M65.761,73.088L98.26,92.966
		H81.222L65.761,73.088z M140.049,62.115c0-0.327,0.268-0.595,0.595-0.595h24.645c0.327,0,0.71,0.241,0.852,0.537l10.532,22.003
		c0.141,0.295,0.257,0.804,0.257,1.131v0.717c0,0.327-0.268,0.595-0.595,0.595h-35.691c-0.327,0-0.595-0.268-0.595-0.595V62.115z
		 M147.918,90.023v1.413h-3.863c-0.246,0.428-0.702,0.719-1.231,0.719c-0.787,0-1.425-0.638-1.425-1.425
		c0-0.787,0.638-1.425,1.425-1.425c0.529,0,0.985,0.291,1.231,0.719H147.918z"/>
	<path d="M41.577,116.31v-1.14c0-0.137-0.055-0.268-0.152-0.364c-0.097-0.096-0.218-0.145-0.366-0.147l-0.45,0.006
		c0.004-0.039,0.012-0.077,0.012-0.117v-1.097c1.929-0.45,3.372-2.18,3.372-4.245c0-1.982-1.329-3.656-3.142-4.185v-0.857
		c1.334-0.497,2.289-1.78,2.289-3.286v-2.103c0-1.505-0.955-2.788-2.289-3.286v-3.211c1.35-0.489,2.319-1.78,2.319-3.297v-2.103
		c0-1.517-0.969-2.808-2.319-3.297v-3.2c1.35-0.489,2.319-1.78,2.319-3.297v-2.103c0-1.517-0.969-2.808-2.319-3.297v-3.2
		c1.35-0.489,2.319-1.78,2.319-3.297v-2.103c0-1.935-1.574-3.509-3.509-3.509c-1.935,0-3.509,1.574-3.509,3.509v2.103
		c0,1.517,0.969,2.808,2.319,3.297v3.2c-1.35,0.489-2.319,1.78-2.319,3.297v2.103c0,1.517,0.969,2.808,2.319,3.297v3.2
		c-1.35,0.489-2.319,1.78-2.319,3.297v2.103c0,1.517,0.969,2.808,2.319,3.297v3.189c-1.366,0.48-2.349,1.78-2.349,3.308v2.103
		c0,1.528,0.983,2.827,2.349,3.308v0.819c-1.844,0.51-3.203,2.197-3.203,4.201c0,2.041,1.411,3.755,3.308,4.228v1.113
		c0,0.05,0.008,0.098,0.015,0.146l-0.471,0.007c-0.279,0.004-0.504,0.232-0.504,0.511v2.428c0,0.226,0.15,0.426,0.367,0.491
		c0.145,0.043,3.54,1.096,3.085,4.965c-0.016,0.191-0.203,1.738-2.041,1.738c-0.889,0-2.041-0.599-2.999-1.778
		c-0.974-1.198-1.411-2.1-1.239-2.925c0.056-0.27-0.235-1.047-0.502-1.113c-0.269-0.066-0.539,0.093-0.614,0.359
		c-0.045,0.161-1.082,3.979,0.784,6.786c1.013,1.523,2.67,2.438,4.961,2.723l0.156,0.003c0.619,0,2.757-0.128,4.288-1.772
		c1.2-1.289,1.721-3.171,1.546-5.612C45.386,121.302,44.859,116.742,41.577,116.31z M38.5,98.776c0-0.623,0.507-1.129,1.129-1.129
		s1.129,0.507,1.129,1.129v2.103c0,0.623-0.507,1.129-1.129,1.129s-1.129-0.507-1.129-1.129V98.776z M38.53,86.879
		c0-0.623,0.507-1.129,1.129-1.129s1.129,0.507,1.129,1.129v2.103c0,0.623-0.507,1.129-1.129,1.129s-1.129-0.507-1.129-1.129V86.879
		z M38.53,74.982c0-0.623,0.507-1.129,1.129-1.129s1.129,0.507,1.129,1.129v2.103c0,0.623-0.507,1.129-1.129,1.129
		s-1.129-0.507-1.129-1.129V74.982z M38.53,63.085c0-0.623,0.507-1.129,1.129-1.129s1.129,0.507,1.129,1.129v2.103
		c0,0.623-0.507,1.129-1.129,1.129s-1.129-0.507-1.129-1.129V63.085z M37.647,109.207c0-1.093,0.89-1.983,1.983-1.983
		s1.983,0.889,1.983,1.983c0,1.093-0.89,1.983-1.983,1.983S37.647,110.3,37.647,109.207z"/>
</g>
</svg>
