<svg xmlns="http://www.w3.org/2000/svg" width="240.319" height="233.333" viewBox="0 0 240.319 233.333">
  <path d="M18.442 227.333c-6.574 0-11.923-5.35-11.923-11.923V17.923C6.52 11.348 11.86 6 18.44 6h203.436c6.574 0 11.923 5.35 11.923 11.923V215.41c0 6.574-5.35 11.923-11.93 11.923H18.44z"/>
  <path d="M221.878 9c4.907 0 8.923 4.015 8.923 8.923V215.41c0 4.908-4.01 8.924-8.92 8.924H18.44c-4.906 0-8.922-4.015-8.922-8.923V17.93c0-4.912 4.016-8.93 8.922-8.93h203.44m0-6H18.44C10.214 3 3.52 9.694 3.52 17.923V215.41c0 8.23 6.693 14.924 14.922 14.924h203.436c8.228 0 14.923-6.694 14.923-14.923V17.93C236.8 9.698 230.11 3 221.88 3z" fill="#FFF"/>
  <path d="M221.878 182.1V20.896c0-1.636-1.338-2.974-2.974-2.974H21.416c-1.636 0-2.974 1.338-2.974 2.974V182.1h203.436z" fill="#FAC200"/>
  <path d="M21.677 214.866v-26.4h3.494v10.84H38.9v-10.84h3.494v26.4H38.9v-12.443H25.17v12.443h-3.493zm26.598 0v-26.4h19.088v3.116H51.77v8.086h14.603v3.097H51.77v8.986h16.206v3.12h-19.7zm24.383 0v-26.4h3.494v23.285h13.002v3.12H72.658zm20.655 0v-26.4h9.958c1.76 0 3.1.084 4.02.252 1.3.216 2.39.628 3.26 1.234.88.606 1.58 1.456 2.12 2.548.54 1.093.8 2.293.8 3.602 0 2.245-.71 4.145-2.14 5.7-1.43 1.554-4.01 2.332-7.74 2.332h-6.77v10.733h-3.5zm3.494-13.848h6.825c2.257 0 3.86-.42 4.808-1.26.948-.84 1.423-2.024 1.423-3.55 0-1.103-.28-2.05-.837-2.836-.558-.786-1.294-1.305-2.206-1.557-.588-.156-1.675-.234-3.26-.234h-6.75v9.44zm42.978 4.592l3.494.882c-.74 2.87-2.05 5.057-3.96 6.564-1.91 1.507-4.23 2.26-6.98 2.26-2.85 0-5.16-.58-6.95-1.737-1.78-1.16-3.14-2.84-4.07-5.04-.93-2.2-1.4-4.56-1.4-7.08 0-2.75.52-5.15 1.57-7.2s2.54-3.6 4.48-4.67c1.93-1.07 4.07-1.6 6.4-1.6 2.64 0 4.86.67 6.66 2.02s3.05 3.23 3.76 5.67l-3.44.81c-.61-1.92-1.5-3.32-2.67-4.2-1.17-.88-2.63-1.32-4.4-1.32-2.03 0-3.726.48-5.09 1.46s-2.32 2.27-2.87 3.91-.828 3.33-.828 5.07c0 2.24.323 4.2.98 5.88.65 1.67 1.67 2.92 3.05 3.75 1.38.822 2.875 1.24 4.484 1.24 1.96 0 3.614-.567 4.97-1.69 1.354-1.13 2.273-2.8 2.753-5.02zm4.898 9.256l10.138-26.4h3.77l10.81 26.4h-3.98l-3.08-7.996H151.3l-2.9 7.996h-3.71zm7.618-10.84h8.95l-2.75-7.312c-.84-2.22-1.46-4.046-1.87-5.474-.33 1.693-.81 3.374-1.42 5.042l-2.9 7.743zm19.94 10.84v-26.4h11.71c2.36 0 4.15.237 5.37.71 1.23.476 2.21 1.313 2.94 2.513.74 1.2 1.1 2.52 1.1 3.98 0 1.87-.6 3.45-1.82 4.73-1.21 1.28-3.08 2.1-5.61 2.45.93.44 1.63.88 2.11 1.31 1.02.93 1.99 2.1 2.9 3.51l4.59 7.18h-4.39l-3.49-5.49c-1.02-1.59-1.86-2.8-2.52-3.64-.66-.84-1.25-1.43-1.77-1.77-.52-.34-1.05-.57-1.59-.7-.4-.09-1.04-.13-1.94-.13h-4.052v11.72h-3.49zm3.5-14.75h7.51c1.6 0 2.85-.164 3.75-.495.9-.33 1.59-.85 2.06-1.58.47-.72.7-1.51.7-2.37 0-1.25-.45-2.27-1.36-3.08-.9-.8-2.34-1.2-4.29-1.2h-8.35v8.74zm21.9 6.268l3.3-.288c.16 1.32.52 2.404 1.09 3.25.57.847 1.46 1.53 2.66 2.053 1.2.52 2.55.78 4.06.78 1.33 0 2.51-.2 3.53-.6 1.02-.4 1.78-.94 2.28-1.63.5-.69.75-1.45.75-2.26 0-.83-.24-1.56-.72-2.17-.48-.62-1.27-1.14-2.37-1.56-.71-.28-2.27-.71-4.7-1.29-2.42-.58-4.12-1.13-5.09-1.65-1.26-.66-2.2-1.48-2.82-2.46-.614-.98-.923-2.08-.923-3.29 0-1.34.374-2.58 1.13-3.74.757-1.16 1.86-2.04 3.31-2.64 1.456-.6 3.07-.9 4.85-.9 1.954 0 3.68.31 5.175.94 1.493.63 2.64 1.56 3.45 2.78.8 1.22 1.233 2.61 1.294 4.16l-3.35.25c-.18-1.67-.79-2.93-1.83-3.78-1.04-.85-2.575-1.28-4.6-1.28-2.117 0-3.657.39-4.62 1.16-.97.77-1.45 1.7-1.45 2.8 0 .95.34 1.73 1.024 2.34.67.61 2.426 1.24 5.266 1.88 2.84.64 4.79 1.2 5.84 1.68 1.537.71 2.67 1.6 3.405 2.69.73 1.09 1.1 2.34 1.1 3.75 0 1.41-.405 2.73-1.21 3.97-.804 1.24-1.96 2.21-3.466 2.9-1.51.69-3.21 1.04-5.09 1.04-2.39 0-4.39-.35-6.01-1.05-1.61-.695-2.88-1.743-3.8-3.14-.914-1.4-1.4-2.984-1.45-4.75z" fill="#FFF"/>
  <path d="M87.85 117.08c-7.557 0-13.682 6.126-13.682 13.682s6.125 13.68 13.68 13.68 13.682-6.124 13.682-13.68-6.125-13.68-13.68-13.68zm0 19.63c-3.286 0-5.95-2.663-5.95-5.948 0-3.285 2.664-5.948 5.95-5.948 3.284 0 5.947 2.663 5.947 5.948 0 3.285-2.663 5.948-5.948 5.948zm79.708-19.63c-7.556 0-13.68 6.126-13.68 13.682s6.124 13.68 13.68 13.68 13.68-6.124 13.68-13.68-6.124-13.68-13.68-13.68zm0 19.63c-3.285 0-5.948-2.663-5.948-5.948 0-3.285 2.663-5.948 5.948-5.948 3.285 0 5.948 2.663 5.948 5.948 0 3.285-2.663 5.948-5.948 5.948z"/>
  <path d="M194.214 89.404L183.15 66.67c-.717-1.47-1.62-3.092-2.01-3.603-.39-.51-2.046-.93-3.682-.93H144.24c-1.636 0-2.974 1.34-2.974 2.975v38.268h-9.247v-3.75h-4.09c-.13-.097-.25-.198-.39-.283l-70.2-42.94c-2.11-1.29-4.84-.886-6.48.955-1.65 1.842-1.74 4.596-.23 6.545l27.79 35.725h-2.9v3.75h-9.68c-3.28 0-5.95 2.676-5.95 5.947v15.46c0 3.27 2.67 5.95 5.95 5.95h5.95c0-8.86 7.19-16.05 16.06-16.05s16.05 7.18 16.06 16.04h47.58c.01-8.87 7.19-16.05 16.06-16.05s16.05 7.18 16.06 16.04h5.95c3.27 0 5.94-2.68 5.94-5.95V95.05c0-1.637-.59-4.18-1.3-5.65zM75.92 79.754l32.5 19.88H91.382l-15.46-19.88zm74.288-10.972c0-.327.268-.595.595-.595h24.645c.327 0 .71.24.852.537l10.532 22.003c.14.295.257.804.257 1.13v.718c0 .327-.27.595-.6.595H150.8c-.327 0-.595-.268-.595-.595V68.782zm7.87 27.908v1.413h-3.863c-.246.428-.702.72-1.23.72-.788 0-1.426-.64-1.426-1.426s.63-1.425 1.42-1.425c.53 0 .98.29 1.23.72h3.86z"/>
  <path d="M51.736 122.976v-1.14c0-.137-.055-.268-.152-.364-.097-.096-.218-.145-.366-.147l-.45.007c.004-.04.012-.077.012-.117v-1.097c1.93-.45 3.372-2.18 3.372-4.245 0-1.982-1.33-3.656-3.142-4.185v-.857c1.334-.49 2.29-1.78 2.29-3.28v-2.1c0-1.5-.956-2.79-2.29-3.28v-3.21c1.35-.49 2.32-1.78 2.32-3.3v-2.11c0-1.51-.97-2.8-2.32-3.29v-3.2c1.35-.49 2.32-1.78 2.32-3.3v-2.1c0-1.51-.97-2.8-2.32-3.29v-3.2c1.35-.49 2.32-1.78 2.32-3.29v-2.11c0-1.93-1.575-3.5-3.51-3.5-1.935 0-3.51 1.58-3.51 3.51v2.1c0 1.52.97 2.81 2.32 3.3v3.2c-1.35.49-2.32 1.78-2.32 3.3v2.11c0 1.52.97 2.81 2.32 3.3v3.2c-1.35.49-2.32 1.78-2.32 3.3v2.11c0 1.516.97 2.81 2.32 3.296v3.19c-1.366.48-2.35 1.78-2.35 3.31v2.104c0 1.53.984 2.823 2.35 3.31v.82c-1.844.51-3.203 2.19-3.203 4.2 0 2.04 1.41 3.75 3.308 4.222v1.113c0 .05.008.1.015.144l-.47.003c-.28.008-.505.236-.505.51v2.43c0 .23.15.43.367.49.145.047 3.54 1.1 3.085 4.97-.016.19-.203 1.74-2.04 1.74-.89 0-2.042-.6-3-1.78-.974-1.2-1.41-2.1-1.24-2.927.057-.27-.234-1.045-.5-1.11-.27-.064-.54.095-.615.36-.045.16-1.082 3.98.784 6.787 1.013 1.525 2.67 2.44 4.96 2.725h.157c.62 0 2.757-.13 4.288-1.77 1.2-1.29 1.73-3.17 1.55-5.61-.02-.2-.55-4.77-3.83-5.2zm-3.076-17.534c0-.623.507-1.13 1.13-1.13s1.128.508 1.128 1.13v2.103c0 .623-.507 1.13-1.13 1.13s-1.128-.508-1.128-1.13v-2.103zm.03-11.897c0-.623.507-1.13 1.13-1.13s1.128.508 1.128 1.13v2.103c0 .623-.507 1.13-1.13 1.13s-1.128-.508-1.128-1.13v-2.103zm0-11.897c0-.623.507-1.13 1.13-1.13s1.128.508 1.128 1.13v2.103c0 .63-.507 1.13-1.13 1.13s-1.128-.5-1.128-1.13v-2.1zm0-11.896c0-.623.507-1.13 1.13-1.13s1.128.508 1.128 1.13v2.103c0 .623-.507 1.13-1.13 1.13s-1.128-.508-1.128-1.13v-2.103zm-.884 46.12c0-1.092.89-1.982 1.983-1.982s1.98.89 1.98 1.983-.89 1.983-1.99 1.983-1.99-.89-1.99-1.983z"/>
</svg>
