<svg xmlns="http://www.w3.org/2000/svg" width="407.98" height="394.48" viewBox="-87.24 -95.232 407.98 394.48">
  <path d="M-53 287c-10.477 0-19-8.523-19-19V-64c0-10.477 8.523-19 19-19h342c10.477 0 19 8.523 19 19v332c0 10.477-8.523 19-19 19H-53z" fill="#010002"/>
  <path d="M289-79c8.25 0 15 6.75 15 15v332c0 8.25-6.75 15-15 15H-53c-8.25 0-15-6.75-15-15V-64c0-8.25 6.75-15 15-15h342m0-8H-53c-12.682 0-23 10.318-23 23v332c0 12.682 10.318 23 23 23h342c12.682 0 23-10.318 23-23V-64c0-12.682-10.318-23-23-23z" fill="#FFF"/>
  <path d="M289 212.01v-271c0-2.75-2.25-5-5-5H-48c-2.75 0-5 2.25-5 5v271h342z" fill="#FFDD30"/>
  <path d="M-47.56 267.084v-44.38h5.873v18.224h23.068v-18.225h5.88v44.38h-5.87v-20.918h-23.07v20.92h-5.87zm44.714 0v-44.38h32.09v5.237H3.027v13.6H27.58v5.21H3.026v15.11h27.246v5.24h-33.12zm40.99 0v-44.38h5.873v39.143h21.857v5.237h-27.73zm34.724 0v-44.38h16.74c2.947 0 5.198.14 6.752.423 2.18.363 4.006 1.055 5.48 2.074 1.472 1.02 2.658 2.45 3.556 4.29.898 1.84 1.347 3.86 1.347 6.06 0 3.78-1.2 6.97-3.603 9.59-2.402 2.62-6.74 3.92-13.018 3.92h-11.38v18.04h-5.874zm5.873-23.28h11.48c3.8 0 6.49-.706 8.09-2.12 1.6-1.41 2.39-3.4 2.39-5.963 0-1.85-.47-3.44-1.4-4.76-.94-1.32-2.17-2.19-3.71-2.62-.99-.26-2.81-.39-5.48-.39H78.74v15.87zm72.26 7.72l5.88 1.482c-1.23 4.824-3.44 8.502-6.64 11.034-3.19 2.533-7.1 3.8-11.73 3.8-4.78 0-8.67-.974-11.67-2.92-2.99-1.95-5.27-4.77-6.84-8.463s-2.34-7.66-2.34-11.897c0-4.62.89-8.653 2.65-12.094 1.77-3.44 4.28-6.056 7.54-7.842 3.26-1.786 6.85-2.68 10.76-2.68 4.44 0 8.18 1.13 11.2 3.392s5.14 5.44 6.33 9.536l-5.78 1.362c-1.03-3.23-2.52-5.58-4.48-7.054-1.96-1.474-4.42-2.21-7.39-2.21-3.41 0-6.26.817-8.55 2.452s-3.9 3.83-4.82 6.584c-.93 2.756-1.39 5.597-1.39 8.522 0 3.774.55 7.07 1.65 9.884 1.1 2.816 2.81 4.92 5.13 6.313 2.32 1.393 4.84 2.09 7.54 2.09 3.29 0 6.08-.95 8.36-2.847 2.28-1.895 3.823-4.71 4.63-8.445zm8.24 15.56l17.05-44.38h6.33l18.17 44.38h-6.69l-5.17-13.44h-18.56l-4.87 13.44h-6.23zm12.81-18.225h15.05l-4.63-12.3c-1.41-3.74-2.46-6.8-3.14-9.21-.57 2.84-1.36 5.67-2.39 8.47l-4.87 13.01zm33.51 18.22V222.7h19.68c3.96 0 6.97.4 9.02 1.196 2.06.796 3.71 2.203 4.94 4.222 1.23 2.02 1.85 4.25 1.85 6.69 0 3.147-1.02 5.802-3.06 7.96-2.04 2.16-5.19 3.533-9.44 4.118 1.56.747 2.74 1.483 3.54 2.21 1.72 1.574 3.34 3.542 4.88 5.903l7.72 12.08h-7.39l-5.87-9.24c-1.72-2.67-3.13-4.7-4.24-6.12-1.11-1.41-2.1-2.4-2.98-2.97-.88-.57-1.77-.96-2.68-1.19-.66-.14-1.75-.21-3.27-.21h-6.81v19.71h-5.87zm5.88-24.8h12.63c2.69 0 4.79-.28 6.3-.84 1.52-.56 2.67-1.44 3.45-2.67.79-1.22 1.18-2.55 1.18-3.98 0-2.1-.76-3.83-2.28-5.18-1.52-1.36-3.93-2.03-7.22-2.03h-14.05v14.68zm36.81 10.53l5.54-.49c.27 2.22.88 4.04 1.84 5.46.96 1.42 2.45 2.57 4.47 3.45 2.02.88 4.29 1.31 6.81 1.31 2.24 0 4.22-.33 5.93-1 1.72-.67 2.99-1.58 3.83-2.74.84-1.16 1.26-2.43 1.26-3.8 0-1.4-.4-2.61-1.21-3.65-.81-1.04-2.14-1.91-4-2.62-1.19-.47-3.82-1.19-7.9-2.17s-6.93-1.9-8.57-2.77c-2.12-1.11-3.7-2.488-4.74-4.13-1.04-1.647-1.56-3.487-1.56-5.52 0-2.24.64-4.34 1.91-6.288s3.13-3.426 5.57-4.435c2.44-1.01 5.16-1.51 8.14-1.51 3.29 0 6.19.53 8.7 1.59 2.52 1.06 4.45 2.614 5.8 4.673 1.35 2.06 2.08 4.39 2.18 6.99l-5.63.424c-.3-2.805-1.33-4.92-3.07-6.357-1.74-1.43-4.32-2.15-7.73-2.15-3.55 0-6.14.65-7.76 1.954-1.62 1.3-2.43 2.87-2.43 4.71 0 1.595.573 2.906 1.724 3.936 1.13 1.03 4.087 2.09 8.86 3.17 4.77 1.08 8.044 2.02 9.82 2.83 2.584 1.19 4.49 2.7 5.723 4.52 1.23 1.828 1.843 3.93 1.843 6.314 0 2.36-.68 4.582-2.03 6.672-1.35 2.09-3.298 3.71-5.83 4.87-2.535 1.17-5.387 1.75-8.555 1.75-4.014 0-7.38-.59-10.094-1.76-2.71-1.17-4.84-2.93-6.382-5.28-1.55-2.354-2.36-5.01-2.44-7.98z" fill="#FFF"/>
  <path d="M232.898 55.79L215.1 10.704c-.605-1.535-2.45-2.79-4.1-2.79h-70c-1.65 0-3 1.35-3 3V83.91h-6.962l-.017-24.886c0-2.75-1.88-6.23-4.19-7.733L37.74-6.86c-2.303-1.503-5.574-.962-7.27 1.204L25.538.64c-1.695 2.163-1.437 5.47.575 7.344l6.89 6.42v44.214c0 4.41-3.59 8-8 8s-8-3.59-8-8c0-2.76-2.24-5-5-5s-5 2.24-5 5c0 9.925 8.075 18 18 18s18-8.075 18-18v-34.89l39.436 36.76c2.01 1.875 3.65 5.66 3.65 8.41V83.91H7c-2.75 0-5 2.25-5 5v32c0 2.75 2.25 5 5 5h25.004c.09 16.49 13.483 29.833 29.996 29.833S91.906 142.4 91.996 125.91h67.008c.09 16.49 13.483 29.832 29.996 29.832s29.906-13.342 29.996-29.833H229c2.75 0 5-2.25 5-5V61.58c0-1.65-.496-4.256-1.102-5.79zM62 140.742c-8.284 0-15-6.716-15-15 0-8.284 6.716-15 15-15s15 6.716 15 15c0 8.284-6.716 15-15 15zm127 0c-8.284 0-15-6.716-15-15 0-8.284 6.716-15 15-15s15 6.716 15 15c0 8.284-6.716 15-15 15zm33.5-74.245c0 1.1-.9 2-2 2H165c-1.1 0-2-.9-2-2V20.33c0-1.1.9-2 2-2h42.063c1.1 0 2.296.85 2.658 1.89l12.13 34.777c.36 1.04.66 2.79.66 3.89v7.61z" fill="#010002"/>
</svg>
