<svg xmlns="http://www.w3.org/2000/svg" width="1972" height="380" viewBox="0 0 1972 380">
  <path fill="#000000" d="M382.136 358.264c0 8.25-6.75 15-15 15h-342c-8.25 0-15-6.75-15-15v-332c0-8.25 6.75-15 15-15h342c8.25 0 15 6.75 15 15v332z"/>
  <path fill="#fac200" d="M362.136 26.264h-332c-2.75 0-5 2.25-5 5v322c0 2.75 2.25 5 5 5h332c2.75 0 5-2.25 5-5v-322c0-2.75-2.25-5-5-5z"/>
  <path d="M432.447 294.34V90.19h27.015v83.833h106.112V90.19h27.015v204.15h-27.02v-96.226H459.46v96.225h-27.017zm205.68 0V90.19h147.61v24.092H665.142v62.525h112.936v23.952H665.142v69.48h125.33v24.09H638.126zm188.55 0V90.19h27.016v180.058h100.542v24.09H826.678zm159.726 0V90.19h77.008c13.56 0 23.91.65 31.06 1.95 10.03 1.67 18.43 4.853 25.21 9.538 6.78 4.69 12.23 11.257 16.37 19.707 4.13 8.45 6.2 17.735 6.2 27.85 0 17.363-5.52 32.052-16.57 44.077-11.04 12.02-31.01 18.03-59.88 18.03h-52.36v82.997h-27.02zm27.015-107.088h52.778c17.452 0 29.845-3.248 37.18-9.748 7.334-6.496 11.002-15.64 11.002-27.433 0-8.53-2.158-15.85-6.475-21.93s-10.004-10.09-17.06-12.04c-4.55-1.21-12.95-1.81-25.204-1.81h-52.23v72.97zm332.352 35.51l27.016 6.823c-5.665 22.19-15.853 39.108-30.564 50.756-14.716 11.66-32.702 17.48-53.964 17.48-22.002 0-39.894-4.48-53.685-13.43-13.782-8.96-24.275-21.93-31.472-38.92-7.19-16.99-10.79-35.23-10.79-54.72 0-21.25 4.07-39.8 12.19-55.63 8.12-15.83 19.69-27.85 34.68-36.07 14.99-8.21 31.49-12.32 49.5-12.32 20.42 0 37.6 5.2 51.53 15.6 13.93 10.4 23.63 25.02 29.11 43.87l-26.6 6.27c-4.73-14.85-11.61-25.66-20.61-32.44-9.01-6.78-20.33-10.16-33.98-10.16-15.69 0-28.8 3.76-39.34 11.28-10.54 7.52-17.94 17.62-22.21 30.29-4.27 12.676-6.4 25.74-6.4 39.2 0 17.36 2.53 32.52 7.6 45.466 5.06 12.953 12.93 22.63 23.61 29.035 10.67 6.4 22.24 9.61 34.67 9.61 15.14 0 27.95-4.37 38.44-13.09 10.49-8.73 17.597-21.68 21.31-38.857zm37.878 71.578l78.4-204.15h29.105l83.553 204.15h-30.775l-23.81-61.83h-85.36l-22.42 61.83h-28.68zm58.904-83.832h69.21l-21.306-56.537c-6.5-17.17-11.324-31.28-14.482-42.33-2.6 13.09-6.266 26.09-11 38.99l-22.422 59.88zm154.156 83.832V90.19h90.516c18.193 0 32.03 1.834 41.498 5.5 9.47 3.67 17.034 10.143 22.698 19.428 5.66 9.285 8.495 19.545 8.495 30.775 0 14.483-4.69 26.692-14.065 36.624-9.38 9.936-23.862 16.248-43.448 18.94 7.147 3.435 12.578 6.823 16.293 10.165 7.888 7.24 15.363 16.293 22.42 27.155l35.51 55.563h-33.978l-27.015-42.473c-7.893-12.254-14.393-21.63-19.496-28.13-5.108-6.495-9.676-11.045-13.72-13.646-4.033-2.59-8.143-4.4-12.32-5.43-3.065-.64-8.078-.97-15.04-.97h-31.333v90.66h-27.015zm27.015-114.05h58.07c12.348 0 22-1.277 28.964-3.833 6.963-2.55 12.254-6.635 15.875-12.254 3.62-5.615 5.43-11.715 5.43-18.31 0-9.654-3.503-17.59-10.515-23.813-7.008-6.222-18.08-9.33-33.21-9.33h-64.614v67.54zm169.334 48.46l25.484-2.228c1.21 10.215 4.02 18.593 8.43 25.133 4.41 6.55 11.26 11.84 20.54 15.875 9.28 4.043 19.73 6.06 31.33 6.06 10.31 0 19.4-1.532 27.3-4.595 7.89-3.064 13.77-7.264 17.62-12.605 3.85-5.337 5.78-11.158 5.78-17.474 0-6.406-1.86-11.998-5.57-16.782-3.71-4.78-9.84-8.79-18.38-12.043-5.48-2.13-17.59-5.45-36.34-9.95-18.75-4.5-31.89-8.74-39.41-12.74-9.74-5.1-17.01-11.44-21.79-19.01-4.78-7.56-7.17-16.03-7.17-25.41 0-10.3 2.93-19.93 8.78-28.9 5.85-8.95 14.39-15.75 25.62-20.4 11.23-4.64 23.72-6.96 37.46-6.96 15.13 0 28.48 2.44 40.04 7.31 11.56 4.88 20.45 12.05 26.67 21.52 6.22 9.47 9.56 20.19 10.03 32.17l-25.9 1.95c-1.39-12.9-6.1-22.65-14.132-29.24-8.03-6.59-19.89-9.89-35.58-9.89-16.34 0-28.245 3-35.72 8.98-7.47 5.99-11.21 13.21-11.21 21.66 0 7.34 2.648 13.37 7.94 18.1 5.197 4.74 18.777 9.59 40.734 14.56 21.95 4.96 37.01 9.31 45.183 13.02 11.88 5.48 20.656 12.42 26.32 20.82 5.66 8.41 8.495 18.09 8.495 29.04 0 10.86-3.11 21.1-9.33 30.71-6.22 9.61-15.15 17.08-26.81 22.42-11.64 5.34-24.76 8.01-39.33 8.01-18.475 0-33.955-2.693-46.443-8.08-12.483-5.38-22.28-13.48-29.38-24.293-7.104-10.815-10.842-23.047-11.21-36.694zM142.91 220.895c-12.703 0-23 10.297-23 23s10.297 23 23 23 23-10.297 23-23-10.297-23-23-23zm0 33c-5.523 0-10-4.477-10-10s4.477-10 10-10 10 4.477 10 10-4.477 10-10 10z" fill="#000000"/>
  <path fill="#000000" d="M313.91 197.866h-208c-5.5 0-10 4.5-10 10v26c0 5.5 4.5 10 10 10h10c.017-14.898 12.098-26.97 27-26.97s26.983 12.072 27 26.97h80c.016-14.898 12.097-26.97 27-26.97s26.982 12.072 26.998 26.97h10c5.5 0 10-4.5 10-10v-26c.002-5.5-4.498-10-9.998-10z"/>
  <path fill="#000000" d="M276.91 220.895c-12.703 0-23 10.297-23 23s10.297 23 23 23 23-10.297 23-23-10.297-23-23-23zm0 33c-5.523 0-10-4.477-10-10s4.477-10 10-10 10 4.477 10 10-4.477 10-10 10zm44.812-79.527L303.12 136.15c-1.203-2.473-2.724-5.198-3.378-6.057-.655-.86-3.44-1.56-6.19-1.56H237.71c-2.75 0-5 2.25-5 5v75.332c0 2.75 2.25 5 5 5h81.2c2.75 0 5-2.25 5-5v-25.002c0-2.75-.984-7.022-2.188-9.495zm-60.75 14.623h-6.492c-.414.72-1.18 1.21-2.07 1.21-1.322 0-2.395-1.07-2.395-2.39s1.073-2.39 2.396-2.39c.89 0 1.66.49 2.07 1.21h6.5V189zm48.772-9.29c0 .55-.45 1-1 1h-60c-.55 0-1-.45-1-1v-40c0-.55.45-1 1-1h41.432c.55 0 1.194.41 1.432.9l17.705 36.99c.237.5.432 1.36.432 1.91v1.21zm-160.02 12.99l-26.866-34.54 56.474 34.54h32.192c-.542-.6-1.144-1.16-1.87-1.6L91.63 118.9c-3.544-2.168-8.126-1.49-10.892 1.603-2.766 3.1-2.925 7.73-.376 11.01l47.588 61.184h21.775z"/>
  <path fill="#000000" d="M122.194 191.563h94.972v8.344h-94.972zm-43.216-40.8c-3.252 0-5.898-2.645-5.898-5.897v-3.536c0-3.252 2.646-5.898 5.898-5.898s5.898 2.646 5.898 5.898v3.536c0 3.252-2.645 5.898-5.898 5.898zm0-11.332c-1.047 0-1.898.86-1.898 1.9v3.54c0 1.05.852 1.9 1.898 1.9s1.898-.85 1.898-1.9v-3.53c0-1.04-.85-1.9-1.898-1.9zm0 31.34c-3.252 0-5.898-2.64-5.898-5.9v-3.53c0-3.25 2.646-5.89 5.898-5.89s5.898 2.65 5.898 5.9v3.54c0 3.26-2.645 5.9-5.898 5.9zm0-11.33c-1.047 0-1.898.86-1.898 1.9v3.54c0 1.05.852 1.9 1.898 1.9s1.898-.85 1.898-1.89v-3.54c0-1.04-.85-1.9-1.898-1.9zm0 31.34c-3.252 0-5.898-2.64-5.898-5.9v-3.53c0-3.25 2.646-5.9 5.898-5.9s5.898 2.65 5.898 5.9v3.54c0 3.25-2.645 5.9-5.898 5.9zm0-11.33c-1.047 0-1.898.86-1.898 1.9v3.54c0 1.05.852 1.9 1.898 1.9s1.898-.85 1.898-1.89v-3.54c0-1.04-.85-1.9-1.898-1.9zm-.05 31.34c-3.253 0-5.9-2.64-5.9-5.9v-3.53c0-3.25 2.646-5.9 5.898-5.9s5.898 2.65 5.898 5.9v3.54c0 3.25-2.645 5.9-5.898 5.9zm0-11.33c-1.048 0-1.9.86-1.9 1.9v3.54c0 1.05.85 1.9 1.898 1.9s1.898-.85 1.898-1.9v-3.53c0-1.04-.85-1.9-1.898-1.9z"/>
  <path fill="#000000" d="M76.978 148.764h4v8.77h-4zm0 20h4v8.77h-4zm0 20h4v8.77h-4zm1.95 37.436c-4.045 0-7.334-3.29-7.334-7.334s3.29-7.333 7.333-7.333 7.333 3.29 7.333 7.333-3.29 7.333-7.333 7.333zm0-10.667c-1.84 0-3.334 1.495-3.334 3.333s1.496 3.333 3.333 3.333 3.333-1.5 3.333-3.34-1.495-3.34-3.333-3.34z"/>
  <path fill="#000000" d="M82.2 230.807v-1.917c0-.23-.09-.45-.255-.612-.164-.16-.366-.244-.616-.248l-.76.01c.01-.064.02-.128.02-.195V225.7h-3.44v2.145c0 .084.01.165.02.245l-.8.01c-.47.008-.85.39-.85.86v4.082c0 .38.25.717.61.825.24.072 5.95 1.842 5.19 8.347-.03.32-.34 2.92-3.43 2.92-1.5 0-3.44-1.006-5.05-2.987-1.64-2.014-2.37-3.53-2.08-4.918.09-.46-.4-1.77-.85-1.88-.45-.11-.91.15-1.03.6-.08.27-1.82 6.69 1.32 11.41 1.7 2.56 4.49 4.09 8.34 4.57h.26c1.04 0 4.633-.22 7.21-2.98 2.02-2.17 2.893-5.33 2.6-9.44-.038-.34-.925-8.01-6.44-8.74zM76.978 207.7h4v5.666h-4z"/>
</svg>
