<svg xmlns="http://www.w3.org/2000/svg" width="1950.195" height="377.452" viewBox="13.222 2.548 1950.195 377.452">
  <path d="M393.797 356c0 8.25-6.75 15-15 15h-342c-8.25 0-15-6.75-15-15V24c0-8.25 6.75-15 15-15h342c8.25 0 15 6.75 15 15v332z"/>
  <path d="M373.797 24h-332c-2.75 0-5 2.25-5 5v322c0 2.75 2.25 5 5 5h332c2.75 0 5-2.25 5-5V29c0-2.75-2.25-5-5-5z" fill="#FFDD30"/>
  <path d="M444.038 294.34V90.19h27.015v83.833h106.112V90.19h27.015v204.15h-27.02v-96.226H471.05v96.225h-27.016.004zm205.68 0V90.19h147.61v24.092H676.733v62.525H789.67v23.952H676.732v69.48h125.33v24.09H649.717v.01zm188.55 0V90.19h27.016v180.058h100.542v24.09H838.27l-.002.002zm159.726 0V90.19h77.008c13.56 0 23.91.65 31.06 1.95 10.03 1.67 18.43 4.853 25.21 9.538 6.78 4.69 12.23 11.257 16.37 19.707 4.13 8.45 6.2 17.735 6.2 27.85 0 17.363-5.52 32.052-16.57 44.077-11.04 12.02-31.01 18.03-59.88 18.03h-52.36v82.997h-27.038zm27.015-107.088h52.77c17.45 0 29.84-3.248 37.18-9.748 7.33-6.496 11-15.64 11-27.433 0-8.53-2.16-15.85-6.48-21.93s-10.01-10.09-17.06-12.04c-4.55-1.21-12.95-1.81-25.21-1.81H1025v72.97h.01zm315.35 35.51l27.01 6.823c-5.67 22.19-15.86 39.108-30.57 50.756-14.72 11.66-32.7 17.48-53.97 17.48-22.01 0-39.9-4.48-53.69-13.43-13.78-8.96-24.28-21.93-31.47-38.92-7.19-16.99-10.79-35.23-10.79-54.72 0-21.25 4.07-39.8 12.19-55.63s19.69-27.85 34.68-36.07c14.99-8.21 31.49-12.32 49.5-12.32 20.42 0 37.6 5.2 51.53 15.6s23.63 25.02 29.11 43.87l-26.6 6.27c-4.73-14.85-11.61-25.66-20.61-32.44-9.01-6.78-20.33-10.16-33.98-10.16-15.69 0-28.8 3.76-39.34 11.28-10.54 7.52-17.94 17.62-22.21 30.29-4.27 12.68-6.4 25.74-6.4 39.2 0 17.36 2.53 32.52 7.6 45.47 5.06 12.96 12.93 22.63 23.61 29.04 10.67 6.4 22.24 9.61 34.67 9.61 15.14 0 27.95-4.37 38.44-13.09 10.49-8.73 17.59-21.68 21.31-38.85l-.04-.04zm37.88 71.578l78.4-204.15h29.1l83.55 204.15h-30.78l-23.81-61.83h-85.36l-22.42 61.83h-28.7zm58.9-83.832h69.21l-21.31-56.537c-6.5-17.17-11.33-31.28-14.48-42.33-2.6 13.09-6.27 26.09-11 38.99l-22.42 59.88zm154.16 83.832V90.19h90.51c18.19 0 32.03 1.834 41.5 5.5 9.47 3.67 17.03 10.143 22.7 19.428 5.66 9.285 8.49 19.545 8.49 30.775 0 14.483-4.69 26.692-14.07 36.624-9.38 9.936-23.86 16.248-43.45 18.94 7.14 3.435 12.58 6.823 16.29 10.165 7.88 7.24 15.36 16.293 22.42 27.155l35.51 55.563h-33.98l-27.02-42.473c-7.897-12.254-14.397-21.63-19.5-28.13-5.11-6.495-9.68-11.045-13.72-13.646-4.036-2.59-8.146-4.4-12.32-5.43-3.068-.64-8.08-.97-15.04-.97h-31.33v90.66h-27.01v-.01zm27.01-114.05h58.07c12.35 0 22-1.277 28.96-3.833 6.96-2.55 12.25-6.635 15.87-12.254 3.62-5.615 5.43-11.715 5.43-18.31 0-9.654-3.51-17.59-10.52-23.813-7.01-6.222-18.08-9.33-33.21-9.33h-64.61v67.54zm169.33 48.46l25.48-2.228c1.21 10.215 4.02 18.593 8.43 25.133 4.41 6.55 11.26 11.84 20.54 15.875 9.28 4.043 19.73 6.06 31.33 6.06 10.31 0 19.4-1.532 27.3-4.595 7.89-3.064 13.77-7.264 17.62-12.605 3.85-5.337 5.78-11.158 5.78-17.474 0-6.406-1.86-11.998-5.57-16.782-3.71-4.78-9.84-8.79-18.38-12.043-5.48-2.13-17.59-5.45-36.34-9.95s-31.89-8.74-39.41-12.74c-9.74-5.1-17.01-11.44-21.79-19.01-4.78-7.56-7.17-16.03-7.17-25.41 0-10.3 2.93-19.93 8.78-28.9 5.85-8.95 14.39-15.75 25.62-20.4 11.23-4.64 23.72-6.96 37.46-6.96 15.13 0 28.48 2.44 40.04 7.31 11.56 4.88 20.45 12.05 26.67 21.52 6.22 9.47 9.56 20.19 10.03 32.17l-25.9 1.95c-1.39-12.9-6.1-22.65-14.13-29.24-8.03-6.59-19.89-9.89-35.58-9.89-16.34 0-28.25 3-35.72 8.98-7.47 5.99-11.21 13.21-11.21 21.66 0 7.34 2.64 13.37 7.94 18.1 5.19 4.74 18.77 9.59 40.73 14.56 21.95 4.96 37.01 9.31 45.18 13.02 11.88 5.48 20.65 12.42 26.32 20.82 5.66 8.41 8.49 18.09 8.49 29.04 0 10.86-3.11 21.1-9.33 30.71s-15.15 17.08-26.81 22.42c-11.64 5.34-24.76 8.01-39.33 8.01-18.48 0-33.96-2.69-46.44-8.08-12.49-5.38-22.28-13.48-29.38-24.29-7.11-10.81-10.85-23.04-11.21-36.69l-.06-.04z"/>
  <path d="M322.696 171.78L304.9 126.692c-.607-1.535-2.452-2.79-4.103-2.79h-70c-1.65 0-3 1.35-3 3v72.995h-6.96l-.018-24.885c-.01-2.75-1.89-6.23-4.19-7.733l-89.1-58.16c-2.31-1.51-5.58-.96-7.27 1.2l-4.93 6.3c-1.7 2.16-1.44 5.47.57 7.34l6.89 6.42v44.22c0 4.41-3.59 8-8 8s-8-3.59-8-8c0-2.76-2.24-5-5-5s-5 2.24-5 5c0 9.92 8.07 18 18 18s18-8.08 18-18v-34.89l39.43 36.76c2.01 1.87 3.65 5.66 3.65 8.41v15.01H96.79c-2.75 0-5 2.25-5 5v32c0 2.75 2.25 5 5 5h25.01c.09 16.49 13.484 29.83 29.997 29.83s29.906-13.34 29.996-29.83H248.8c.09 16.49 13.484 29.83 29.997 29.83s29.906-13.34 29.996-29.84h10.004c2.75 0 5-2.25 5-5v-59.33c0-1.65-.495-4.26-1.1-5.79zm-170.9 84.95c-8.283 0-15-6.716-15-15 0-8.284 6.717-15 15-15s15 6.716 15 15c0 8.285-6.714 15-15 15zm127 0c-8.283 0-15-6.716-15-15 0-8.284 6.717-15 15-15s15 6.716 15 15c0 8.285-6.714 15-15 15zm33.5-74.244c0 1.1-.9 2-2 2h-55.5c-1.1 0-2-.9-2-2V136.32c0-1.1.9-2 2-2h42.064c1.1 0 2.296.85 2.658 1.888l12.12 34.778c.363 1.04.66 2.79.66 3.89v7.61z" fill="#010002"/>
</svg>
