<svg xmlns="http://www.w3.org/2000/svg" width="220" height="220" viewBox="0 0 220 220">
  <path d="M211.718 175.433V14.23c0-1.636-1.338-2.974-2.974-2.974H11.256c-1.636 0-2.974 1.338-2.974 2.974v161.203h203.436z" fill="#FAC200"/>
  <path d="M11.518 208.2v-26.4h3.494v10.84h13.722V181.8h3.494v26.4h-3.494v-12.444H15.01V208.2h-3.49zm26.597 0v-26.4h19.088v3.115H41.61V193h14.603v3.097H41.61v8.986h16.206v3.115h-19.7zm24.383 0v-26.4h3.494v23.284h13.002v3.115H62.498zm20.655 0v-26.4h9.958c1.76 0 3.1.083 4.02.25 1.3.217 2.39.63 3.26 1.235.88.606 1.58 1.456 2.12 2.548.54 1.093.8 2.293.8 3.602 0 2.245-.71 4.145-2.14 5.7-1.43 1.554-4.01 2.332-7.74 2.332h-6.77V208.2h-3.5zm3.494-13.85h6.825c2.257 0 3.86-.42 4.808-1.26.948-.84 1.423-2.023 1.423-3.548 0-1.104-.28-2.05-.837-2.837-.558-.786-1.294-1.305-2.206-1.557-.588-.156-1.675-.234-3.26-.234h-6.75v9.437zm42.978 4.593l3.494.882c-.74 2.87-2.05 5.057-3.96 6.564-1.91 1.5-4.23 2.26-6.98 2.26-2.85 0-5.16-.58-6.95-1.74-1.78-1.16-3.14-2.84-4.07-5.04-.93-2.2-1.4-4.56-1.4-7.08 0-2.75.52-5.15 1.57-7.2s2.54-3.6 4.48-4.67c1.93-1.06 4.07-1.6 6.4-1.6 2.64 0 4.86.67 6.66 2.01 1.8 1.34 3.05 3.23 3.76 5.67l-3.44.81c-.61-1.92-1.5-3.32-2.67-4.2-1.17-.88-2.63-1.32-4.4-1.32-2.03 0-3.73.48-5.09 1.46-1.36.97-2.32 2.27-2.87 3.91-.55 1.64-.83 3.33-.83 5.07 0 2.24.32 4.2.98 5.88.65 1.67 1.67 2.92 3.05 3.75 1.38.83 2.87 1.24 4.48 1.24 1.96 0 3.61-.57 4.97-1.7 1.35-1.13 2.27-2.8 2.75-5.03zm4.9 9.257l10.137-26.4h3.764l10.805 26.4h-3.98l-3.07-7.997h-11.04l-2.9 7.996h-3.71zm7.616-10.842h8.95l-2.75-7.31c-.84-2.222-1.46-4.047-1.87-5.475-.33 1.693-.81 3.374-1.42 5.042l-2.9 7.743zm19.94 10.842v-26.4h11.71c2.36 0 4.15.236 5.37.71 1.23.475 2.21 1.312 2.94 2.512s1.1 2.528 1.1 3.98c0 1.873-.6 3.452-1.82 4.736-1.21 1.285-3.08 2.1-5.61 2.45.93.443 1.63.88 2.11 1.314 1.02.936 1.99 2.107 2.9 3.512l4.59 7.185h-4.39l-3.49-5.5c-1.02-1.59-1.86-2.8-2.52-3.64-.66-.84-1.25-1.43-1.77-1.77-.52-.34-1.05-.57-1.59-.7-.4-.09-1.04-.13-1.94-.13h-4.05v11.73h-3.5zm3.5-14.75h7.51c1.6 0 2.85-.164 3.75-.494.9-.33 1.59-.858 2.06-1.585.47-.72.7-1.51.7-2.36 0-1.25-.45-2.27-1.36-3.08-.91-.8-2.34-1.2-4.29-1.2h-8.35v8.74zm21.9 6.267l3.3-.288c.16 1.32.52 2.4 1.09 3.25.57.84 1.46 1.53 2.66 2.05 1.2.52 2.55.78 4.06.78 1.33 0 2.51-.2 3.53-.6 1.02-.4 1.78-.94 2.28-1.63.5-.69.75-1.45.75-2.26 0-.83-.24-1.55-.72-2.17-.48-.62-1.27-1.14-2.37-1.56-.71-.28-2.27-.71-4.7-1.29-2.42-.59-4.12-1.13-5.09-1.65-1.26-.66-2.2-1.48-2.82-2.46-.62-.98-.92-2.08-.92-3.29 0-1.34.38-2.58 1.14-3.74.76-1.16 1.86-2.04 3.31-2.64 1.45-.6 3.07-.9 4.85-.9 1.96 0 3.68.31 5.18.94 1.496.63 2.645 1.56 3.45 2.78.804 1.22 1.236 2.61 1.297 4.16l-3.35.25c-.18-1.67-.79-2.93-1.823-3.78-1.04-.85-2.58-1.28-4.6-1.28-2.12 0-3.66.39-4.62 1.16-.97.77-1.45 1.71-1.45 2.8 0 .95.34 1.73 1.02 2.34.67.61 2.426 1.24 5.266 1.88 2.84.64 4.787 1.2 5.843 1.68 1.54.71 2.67 1.6 3.403 2.69.73 1.08 1.1 2.34 1.1 3.75 0 1.4-.404 2.73-1.21 3.97-.804 1.24-1.96 2.21-3.466 2.9-1.505.69-3.2 1.03-5.086 1.03-2.39 0-4.39-.35-6-1.05-1.615-.7-2.88-1.75-3.8-3.14-.92-1.4-1.4-2.99-1.45-4.75z" fill="#FFF"/>
  <path d="M77.69 110.414c-7.557 0-13.682 6.125-13.682 13.68 0 7.557 6.125 13.682 13.68 13.682s13.682-6.125 13.682-13.68c0-7.557-6.125-13.682-13.68-13.682zm0 19.63c-3.286 0-5.95-2.663-5.95-5.948s2.664-5.948 5.95-5.948c3.284 0 5.947 2.663 5.947 5.948s-2.662 5.948-5.948 5.948zm79.708-19.63c-7.556 0-13.68 6.125-13.68 13.68 0 7.557 6.124 13.682 13.68 13.682s13.68-6.125 13.68-13.68c.002-7.557-6.124-13.682-13.68-13.682zm0 19.63c-3.285 0-5.948-2.663-5.948-5.948s2.663-5.948 5.948-5.948c3.285 0 5.948 2.663 5.948 5.948s-2.662 5.948-5.948 5.948z"/>
  <path d="M184.054 82.738L172.99 60.004c-.717-1.47-1.62-3.092-2.01-3.603-.39-.51-2.046-.92-3.682-.92H134.08c-1.635 0-2.973 1.34-2.973 2.98v38.26h-9.247v-3.75h-4.084c-.125-.09-.245-.19-.384-.28L47.185 49.74c-2.108-1.288-4.834-.885-6.48.956-1.644 1.842-1.74 4.596-.223 6.545L68.27 92.97h-2.903v3.75H55.68c-3.272 0-5.948 2.676-5.948 5.947v15.466c0 3.27 2.677 5.948 5.948 5.948h5.95c.008-8.86 7.195-16.04 16.06-16.04s16.05 7.18 16.06 16.05h47.587c.01-8.86 7.196-16.04 16.06-16.04s16.05 7.18 16.06 16.05h5.95c3.27 0 5.947-2.67 5.947-5.94V88.39c.002-1.636-.584-4.177-1.3-5.648zM65.76 73.088l32.5 19.878H81.222l-15.46-19.878zm74.29-10.973c0-.327.267-.595.594-.595h24.645c.32 0 .71.24.85.537l10.53 22.003c.14.295.25.804.25 1.13v.718c0 .327-.27.595-.6.595h-35.69c-.33 0-.6-.268-.6-.595V62.115zm7.868 27.908v1.413h-3.863c-.246.428-.702.72-1.23.72-.788 0-1.426-.64-1.426-1.426 0-.787.63-1.425 1.42-1.425.53 0 .98.29 1.23.72h3.86z"/>
  <path d="M41.577 116.31v-1.14c0-.137-.055-.268-.152-.364-.097-.096-.218-.145-.366-.147h-.45c0-.04.01-.08.01-.12v-1.1c1.93-.45 3.37-2.18 3.37-4.25 0-1.98-1.33-3.66-3.14-4.19v-.86c1.33-.5 2.29-1.78 2.29-3.29v-2.1c0-1.51-.96-2.79-2.29-3.29v-3.21c1.35-.49 2.32-1.78 2.32-3.3v-2.1c0-1.52-.97-2.81-2.32-3.3v-3.2c1.35-.49 2.32-1.78 2.32-3.3v-2.1c0-1.51-.97-2.8-2.32-3.29v-3.2c1.35-.49 2.32-1.78 2.32-3.3v-2.1c0-1.94-1.58-3.51-3.51-3.51-1.94 0-3.51 1.57-3.51 3.51v2.1c0 1.51.97 2.8 2.32 3.29v3.2c-1.35.49-2.32 1.78-2.32 3.295v2.11c0 1.52.97 2.81 2.32 3.3v3.2c-1.35.49-2.32 1.78-2.32 3.3v2.1c0 1.516.97 2.81 2.32 3.296v3.19c-1.37.48-2.35 1.78-2.35 3.3v2.1c0 1.53.98 2.82 2.35 3.31v.82c-1.85.51-3.21 2.19-3.21 4.2 0 2.04 1.41 3.75 3.31 4.22v1.114c0 .05.01.1.01.146l-.47.007c-.28.004-.51.23-.51.51v2.43c0 .225.15.425.36.49.14.043 3.54 1.1 3.08 4.965-.02.19-.21 1.74-2.04 1.74-.89 0-2.05-.6-3-1.78-.98-1.2-1.41-2.1-1.24-2.928.05-.27-.24-1.045-.5-1.11-.27-.066-.54.093-.62.36-.05.16-1.08 3.98.78 6.785 1.01 1.522 2.67 2.44 4.96 2.722l.16.01c.62 0 2.76-.13 4.29-1.77 1.2-1.29 1.72-3.17 1.54-5.62-.02-.2-.55-4.76-3.83-5.19zM38.5 98.776c0-.623.507-1.13 1.13-1.13s1.128.508 1.128 1.13v2.103c0 .62-.507 1.12-1.13 1.12s-1.128-.51-1.128-1.13v-2.1zm.03-11.897c0-.63.507-1.13 1.13-1.13s1.128.5 1.128 1.13v2.1c0 .62-.507 1.13-1.13 1.13s-1.128-.51-1.128-1.13v-2.1zm0-11.9c0-.63.507-1.13 1.13-1.13s1.128.51 1.128 1.13v2.1c0 .62-.507 1.13-1.13 1.13s-1.128-.51-1.128-1.13v-2.1zm0-11.9c0-.63.507-1.13 1.13-1.13s1.128.51 1.128 1.13v2.1c0 .62-.507 1.13-1.13 1.13s-1.128-.51-1.128-1.13v-2.1zm-.883 46.12c0-1.1.89-1.99 1.983-1.99s1.983.89 1.983 1.98-.89 1.98-1.983 1.98-1.983-.89-1.983-1.99z"/>
</svg>
