<svg xmlns="http://www.w3.org/2000/svg" width="356" height="349.333" viewBox="0 0 356 349.333">
  <path d="M349 284.75v-271c0-2.75-2.25-5-5-5H12c-2.75 0-5 2.25-5 5v271h342z" fill="#FFDD30"/>
  <path d="M12.44 339.826v-44.38h5.873v18.224H41.38v-18.225h5.88v44.38h-5.87v-20.918H18.32v20.92h-5.88zm44.714 0v-44.38h32.09v5.237H63.027v13.6H87.58v5.21H63.026v15.11h27.246v5.24h-33.12l.002-.017zm40.99 0v-44.38h5.873v39.143h21.857v5.23h-27.73zm34.724 0v-44.38h16.74c2.947 0 5.198.14 6.752.423 2.18.36 4.006 1.05 5.48 2.07 1.472 1.02 2.658 2.45 3.556 4.29s1.347 3.86 1.347 6.06c0 3.78-1.2 6.97-3.603 9.59-2.402 2.62-6.74 3.92-13.018 3.92h-11.38v18.04h-5.874v-.02zm5.873-23.28h11.48c3.8 0 6.49-.706 8.09-2.12 1.6-1.41 2.39-3.4 2.39-5.963 0-1.85-.47-3.44-1.4-4.76-.94-1.32-2.17-2.19-3.71-2.62-.99-.26-2.81-.39-5.48-.39h-11.37v15.87-.017zm72.26 7.72l5.88 1.482c-1.23 4.824-3.44 8.502-6.64 11.034-3.19 2.533-7.1 3.8-11.73 3.8-4.78 0-8.67-.974-11.67-2.92-2.99-1.95-5.27-4.77-6.84-8.463-1.57-3.7-2.34-7.66-2.34-11.9 0-4.62.89-8.66 2.65-12.1 1.77-3.44 4.28-6.06 7.54-7.84 3.26-1.79 6.85-2.68 10.76-2.68 4.44 0 8.18 1.13 11.2 3.39s5.14 5.44 6.33 9.53l-5.78 1.36c-1.03-3.23-2.52-5.58-4.48-7.057-1.96-1.475-4.42-2.21-7.39-2.21-3.41 0-6.26.816-8.55 2.45-2.29 1.636-3.9 3.83-4.82 6.585-.93 2.755-1.39 5.596-1.39 8.52 0 3.773.55 7.07 1.65 9.883 1.1 2.815 2.81 4.92 5.13 6.31 2.32 1.394 4.84 2.09 7.54 2.09 3.29 0 6.08-.95 8.36-2.846 2.28-1.896 3.83-4.71 4.63-8.446H211zm8.24 15.56l17.05-44.38h6.33l18.17 44.38h-6.69l-5.17-13.44h-18.56l-4.87 13.44h-6.26zm12.81-18.225h15.05l-4.63-12.3c-1.41-3.74-2.46-6.8-3.14-9.21-.57 2.84-1.36 5.67-2.39 8.47l-4.87 13.01-.02.03zm33.51 18.22v-44.37h19.68c3.96 0 6.97.4 9.02 1.2 2.06.8 3.71 2.21 4.94 4.22 1.23 2.02 1.85 4.25 1.85 6.69 0 3.15-1.02 5.81-3.06 7.96-2.04 2.16-5.19 3.54-9.44 4.12 1.56.75 2.74 1.49 3.54 2.21 1.72 1.58 3.34 3.54 4.88 5.91l7.72 12.08h-7.39l-5.87-9.24c-1.72-2.67-3.13-4.7-4.24-6.12-1.11-1.41-2.1-2.4-2.98-2.97s-1.77-.96-2.68-1.19c-.66-.14-1.75-.21-3.27-.21h-6.81v19.71h-5.87l-.02.02zm5.88-24.8h12.63c2.69 0 4.79-.28 6.3-.84 1.52-.56 2.67-1.44 3.45-2.67.79-1.22 1.18-2.55 1.18-3.98 0-2.1-.76-3.83-2.28-5.18-1.52-1.36-3.93-2.03-7.22-2.03h-14.05V315l-.01.02zm36.81 10.53l5.54-.49c.27 2.22.88 4.04 1.84 5.46s2.45 2.57 4.47 3.45 4.29 1.31 6.81 1.31c2.24 0 4.22-.33 5.93-1 1.72-.67 2.99-1.58 3.83-2.74s1.26-2.43 1.26-3.8c0-1.4-.4-2.61-1.21-3.65-.81-1.04-2.14-1.91-4-2.62-1.19-.47-3.82-1.19-7.9-2.17s-6.93-1.9-8.57-2.77c-2.12-1.11-3.7-2.48-4.74-4.13-1.04-1.64-1.56-3.48-1.56-5.52 0-2.24.64-4.34 1.91-6.28 1.27-1.95 3.13-3.42 5.57-4.43 2.44-1.01 5.16-1.51 8.14-1.51 3.29 0 6.19.53 8.7 1.59 2.52 1.06 4.45 2.62 5.8 4.68 1.35 2.06 2.08 4.39 2.18 6.99l-5.63.425c-.3-2.804-1.33-4.92-3.07-6.356-1.74-1.43-4.32-2.15-7.73-2.15-3.55 0-6.14.65-7.76 1.954-1.62 1.3-2.43 2.87-2.43 4.71 0 1.595.58 2.906 1.73 3.936 1.13 1.03 4.09 2.09 8.86 3.17s8.05 2.02 9.82 2.83c2.59 1.19 4.49 2.7 5.73 4.52 1.23 1.83 1.85 3.93 1.85 6.313 0 2.36-.68 4.58-2.03 6.67s-3.297 3.71-5.83 4.87c-2.534 1.17-5.386 1.75-8.554 1.75-4.014 0-7.38-.59-10.094-1.76-2.71-1.17-4.84-2.93-6.38-5.28-1.55-2.353-2.36-5.01-2.44-7.98l-.02.03z" fill="#FFF"/>
  <path d="M292.898 128.532l-17.796-45.086c-.606-1.535-2.45-2.79-4.102-2.79h-70c-1.65 0-3 1.35-3 3v72.996h-6.96l-.018-24.886c-.002-2.75-1.888-6.23-4.19-7.733l-89.096-58.15c-2.303-1.504-5.574-.963-7.27 1.203l-4.932 6.3c-1.694 2.156-1.437 5.46.576 7.336L93 87.146v44.213c0 4.41-3.59 8-8 8s-8-3.59-8-8c0-2.76-2.24-5-5-5s-5 2.24-5 5c0 9.92 8.075 18 18 18s18-8.08 18-18V96.47l39.436 36.76c2.012 1.874 3.657 5.66 3.657 8.41v15.012H67c-2.75 0-5 2.25-5 5v32c0 2.75 2.25 5 5 5h25.004c.09 16.49 13.483 29.833 29.996 29.833s29.906-13.343 29.996-29.833h67.008c.09 16.49 13.483 29.832 29.996 29.832s29.906-13.342 29.996-29.833H289c2.75 0 5-2.25 5-5v-59.32c0-1.65-.496-4.25-1.102-5.79zM122 213.484c-8.284 0-15-6.716-15-15s6.716-15 15-15 15 6.716 15 15-6.716 15-15 15zm127 0c-8.284 0-15-6.716-15-15s6.716-15 15-15 15 6.716 15 15-6.716 15-15 15zm28.5-74.245c0 1.1-.9 2-2 2H220c-1.1 0-2-.9-2-2V93.07c0-1.1.9-2 2-2h42.063c1.1 0 2.296.85 2.658 1.89l12.13 34.777c.36 1.04.66 2.79.66 3.89v7.61h-.01z" fill="#010002"/>
</svg>
